<svg xmlns="http://www.w3.org/2000/svg" viewBox="0 0 400 400" height="400" width="400" id="Machine-Learning--Streamline-Djakarta.svg"><desc>Machine Learning Streamline Illustration: https://streamlinehq.com</desc><g><g><path d="M98.94 249.46c-0.14 0.9 0.52 0.9 1.16 0.38 2.98 -3.36 7.52 -4.78 10.76 -7.64a15.5 15.5 0 0 1 4 -2.46c4.42 -1.66 4.32 2.82 2.86 4.4 -1.82 2 -4 3.76 -6 5.58 -15.08 16 -12.94 14.7 -23.44 23.58 -2 1.68 -4 1.02 -4.68 -1.7a26.38 26.38 0 0 1 -0.24 -7.12c0.24 -1.42 0.24 -3.36 -0.52 -4s-2.2 1.04 -2.98 1.7a105.84 105.84 0 0 0 -8.42 7.38c-13.48 12.78 -24.88 16 -33.42 23.18 -1 0.88 -6.12 -10.74 -6.48 -15.54 -0.14 -1.16 0.9 -2 1.82 -2.72 5.3 -3.38 10.74 -6.48 16 -10 6.72 -4.54 13.72 -8.68 20 -13.72 2.46 -2 5.58 -2.98 8.42 -4.8 3.88 -2.6 8 -4.92 12.18 -7.38 3.58 -2.4 8.58 -3.02 8.28 1.16 -0.24 4.9 1.16 6.52 0.7 9.72Z" fill="#41b751" stroke-width="1"></path><path d="M297.64 154.76a3.4 3.4 0 0 0 -4.66 -2.58c-1.3 0.42 -2.86 1.04 -4.68 1.56 1.44 -2.46 2.6 -4.42 3.9 -6.48a14.22 14.22 0 0 0 2.58 -6.48 1.72 1.72 0 0 0 -2 -2.2c-1.44 0.12 -2.72 0.26 -4.54 0.38 2 -1.68 2 -4 3.36 -5.56 0.52 -0.66 1.56 -1.82 0.52 -2.34a2 2 0 0 0 -2.84 0.92 2.7 2.7 0 0 0 -0.78 1.16c-4.26 8.1 -5.66 9.18 -4.14 10.88 1.16 1.3 2.2 0.38 3.36 0 1.78 -0.6 2 -0.28 0.9 1.3a90.78 90.78 0 0 0 -6.4 10.68 3.16 3.16 0 0 0 0.52 4c1.16 1.02 2.58 0.38 3.76 -0.52a3.88 3.88 0 0 1 3.36 -1.18c-1.42 3.5 -4 6 -5.56 9.08 -1.24 2.3 -3.44 4.4 -3.5 7.24 0 1.18 0 2.22 1.04 2.72s1.8 -0.12 2.72 -0.5a8.46 8.46 0 0 1 4 -1.56c-7.14 10.52 -5.64 6.86 -9.44 12.82a2.9 2.9 0 0 0 0.12 3.5c0.66 1.04 1.8 0.24 2.72 -0.14l2.6 -1.08c-1.58 3.22 -2.28 2.4 -6.74 10.28 -0.66 1.16 -1.34 2.22 -0.78 3.5 0.74 1.7 2 0.78 3.36 0.9 -0.38 0.52 -0.64 1.04 -0.9 1.44 -2.34 2.58 -3.76 5.7 -6 8.42 -0.9 1.42 -0.78 2.98 0.78 3.48s1.68 1.18 0.52 2.34a0.96 0.96 0 0 0 -0.14 1.16c0.26 0.26 0.52 0.14 0.78 0a38.4 38.4 0 0 0 9.34 -7.76 2 2 0 0 0 0.12 -2.72 1.76 1.76 0 0 0 -2.32 -0.4 0.88 0.88 0 0 1 -1.18 -0.26c1.56 -1.8 2.86 -3.74 4.54 -5.56a22.82 22.82 0 0 0 4.14 -5.84 3.1 3.1 0 0 0 0 -2.84c-0.84 -1.48 -2.68 -1.04 -4.28 -0.38 2.72 -2.48 3.76 -5.84 5.84 -8.56 0.78 -1.04 1.04 -1.82 0.26 -2.84s-1.3 -1.82 -2.6 -1.3c-0.38 0.12 -1.04 0.26 -1.42 -0.14 2.46 -3.74 5.32 -7.24 7.52 -11.14a2.32 2.32 0 0 0 -0.26 -2.98c-0.66 -0.9 -1.44 -0.76 -2.46 -0.52 -1.44 0.52 -3.12 0.92 -5.18 1.44 3.1 -4.4 5.56 -8.68 8.54 -12.44 0.68 -0.82 1.7 -1.66 1.6 -2.9Z" fill="#41b751" stroke-width="1"></path><path d="M234.3 308.92c2.2 -11.02 0.8 -13.88 6.34 -33.04a57.62 57.62 0 0 1 6 -15.8c1.56 -2.6 2.48 -5.84 4 -8.56a94.38 94.38 0 0 1 8.42 -11.78c6.82 -7.86 8.3 -11.2 24.88 -20.98a37.26 37.26 0 0 1 5.04 -2.34 6.12 6.12 0 0 1 2.6 -0.26c2.38 0.28 3.06 3.64 0.9 3.64 -3.62 0.38 -6 2.98 -8.8 4.78a108.16 108.16 0 0 0 -9.46 7.12 65.16 65.16 0 0 0 -9.06 9.72 116.82 116.82 0 0 0 -7.78 10.76c-1.82 2.98 -3.1 6.22 -4.92 9.2a103.66 103.66 0 0 0 -6.6 17.1c-1.54 4.86 -6 25.06 -6 36 0 2 -1.04 2.72 -2.6 2.72s-2.32 -1.16 -2.58 -2.72 0.14 -3.62 -0.38 -5.56Z" fill="#41b751" stroke-width="1"></path><path d="M249.84 213.06a4 4 0 0 1 1.68 0.38c0.52 0.26 1.16 0.52 1.04 1.3s-0.78 0.52 -1.16 0.78c-6.62 1.82 -12.7 5.18 -18.92 7.78a59.68 59.68 0 0 0 -25.64 20.46c-4.66 6.34 -7.78 13.46 -11.54 20.2 -1.54 2.86 -2.58 6.22 -3.88 9.2a61.68 61.68 0 0 0 -5.32 20.34 79.12 79.12 0 0 0 -0.76 9.72c0 2.2 -2.3 2.32 -3.64 1.42a6 6 0 0 1 -1.8 -4.14c0 -2 1.42 -15.04 1.68 -16.46 4.3 -17 16.18 -42.2 29.4 -53.36a72.94 72.94 0 0 1 21.5 -12.44 103.58 103.58 0 0 1 10.36 -4 35 35 0 0 0 7 -1.18Z" fill="#41b751" stroke-width="1"></path><path d="M318.5 177.3c1.54 -2.32 4.14 -4.26 2.7 -8 -0.38 -1.02 -0.64 -1.28 -1.68 -1.28s-2.32 1.02 -3.88 0.9c0.78 -1.3 1.32 -2.44 2 -3.62s2 -2.48 1.8 -4a11.02 11.02 0 0 0 -1.68 -5.44c-0.78 -1.04 -2.32 0.26 -3.62 0.12 -2 -0.64 0.7 -3.68 0.9 -3.88 2 -1.84 1.42 -3.76 0.52 -6.34 -2 4.4 -5.24 7.68 -7.52 11.64a3.18 3.18 0 0 0 0.14 3.38c0.62 1.18 1.82 0.64 2.84 0.38s3.2 -1.8 3.9 -0.78a74.58 74.58 0 0 1 -5.84 10.38 2.82 2.82 0 0 0 0.52 3.74 2.22 2.22 0 0 0 3.38 0.14c0.76 -0.4 1.28 -0.78 2 -0.4a1.28 1.28 0 0 1 -0.38 1.18l-7.78 11.66c-0.64 0.9 -1.56 1.8 -0.78 3.1a2.92 2.92 0 0 0 3.4 1.18c-1.42 2.26 -3.3 4 -4.7 6.2a2.34 2.34 0 0 0 0 3.38 2.44 2.44 0 0 0 3.64 0.38 2 2 0 0 1 2.2 -0.38c-2.2 2.46 -4.28 4.92 -6.36 7.38 -0.9 1.04 -2 2.2 -1.16 3.76s2 1.42 3.16 1.42 -2 2.66 -3.16 6.34c-0.38 0.92 -0.52 2 0.4 2.6s1.7 0.4 2.58 -0.52c2.24 -2.3 3.5 -5.32 5.58 -7.78a13.22 13.22 0 0 0 1.68 -3.1 2 2 0 0 0 -1.04 -2.98c-2 -0.66 -0.78 -1.42 -0.26 -2.2a40 40 0 0 0 4.66 -6.36 2.54 2.54 0 0 0 -1.8 -3.74 13.06 13.06 0 0 0 -2.34 0c1.04 -2.72 3.36 -4.16 4.66 -6.48s0.52 -4 -2.32 -4c-0.52 0 -1.18 0.12 -1.44 -0.14s0.14 -1.16 0.4 -1.54c1.7 -2.14 3.24 -4.08 4.68 -6.3Z" fill="#41b751" stroke-width="1"></path><path d="M140.38 257.1a53.7 53.7 0 0 1 -2.38 9.72c-2.58 6.6 -4.28 13.46 -6.22 20.2a2.58 2.58 0 0 1 -3.5 1.82c-4.28 -2 -11.32 -0.16 -9.7 -5.58a157.6 157.6 0 0 1 6.72 -17.88c1.62 -3.88 3.84 -10.14 6.88 -13.86 0.38 -0.38 4.78 0.92 6.34 1.82a3.64 3.64 0 0 1 1.86 3.76Z" fill="#41b751" stroke-width="1"></path><path d="M254 92.16c3.6 0.2 8.2 1.38 12.12 2 3.36 0.52 14.76 2.6 16.84 3.64a5.58 5.58 0 0 1 2 8 5.16 5.16 0 0 1 -5.06 1.68c-6.74 -1.04 -24.62 -4 -26.82 -4.54 -6.34 -0.94 -8.32 -11.28 0.92 -10.78Z" fill="#41b751" stroke-width="1"></path><path d="M252 151.14c-1.16 -0.26 -1.56 0.26 -2.2 0.52 -2.68 0.9 -3.18 -0.7 -2.98 -2.2a18.54 18.54 0 0 1 2.46 -6.74c-1.3 -0.12 -1.56 1.16 -2.72 1.3 -1.68 0.26 -2.84 -0.26 -2.72 -2a20 20 0 0 1 2 -7.64c0.5 -1.16 1.8 -1.42 3.1 -2 -0.76 4.14 -1.58 4.94 -1.04 5.3s1.18 -0.26 1.68 -0.52a24.6 24.6 0 0 1 2.48 -1.3c0.9 -0.26 1.8 -1.02 2.58 0.26s1.04 2.2 0.12 3.12a20.9 20.9 0 0 0 -2.58 5.44c-0.12 0.38 -0.4 0.9 -0.12 1.16s0.9 0.14 1.16 0c2.98 -0.9 4.14 0.4 3.1 3.5 -3.44 10.76 -7.3 12 -3.76 12.44a2.12 2.12 0 0 1 1.7 2.98 44.26 44.26 0 0 1 -5.18 10 2.36 2.36 0 0 1 -0.78 -2.2 24.88 24.88 0 0 0 -2.3 -9.12 2.54 2.54 0 0 1 0.52 -2.72c2.68 -2.98 3.32 -6.34 5.48 -9.58Z" fill="#41b751" stroke-width="1"></path><path d="M267.84 164.62c-1.16 -0.26 -2.2 1.16 -2.98 0a2.92 2.92 0 0 1 -0.12 -3.64c1.42 -2.98 2.72 -6 4 -8.94a4 4 0 0 0 0.4 -1.8 15.58 15.58 0 0 1 -2.34 1.42c-0.52 0.26 -1.42 0.9 -2.2 0s-1.04 -1.68 -0.52 -2.72c2.72 -5.06 4.92 -10.5 7.26 -15.68 1.68 -3.78 3.88 -3.72 2.34 0.92 -1.18 3.36 -2.6 6.6 -4 10.22a18.72 18.72 0 0 0 2.58 -0.9c1.04 -0.38 2 -0.52 2.72 0.26a2.64 2.64 0 0 1 0.52 3.1c-1.16 2.6 -2.32 5.32 -3.5 8 -0.26 0.52 -0.9 1.3 0.52 1.68a2.22 2.22 0 0 1 1.44 2.6 22.88 22.88 0 0 1 -6.36 12.42c-0.52 0.52 -1.42 1.18 -2.32 0.4a1.86 1.86 0 0 1 -0.4 -2.6 20.62 20.62 0 0 0 2.96 -4.74Z" fill="#41b751" stroke-width="1"></path><path d="M257.22 198.56a24 24 0 0 1 2.46 -3.5c-1.16 -0.14 -2 0.52 -2.84 -0.26s-1.3 -1.68 -0.26 -2.86a92.18 92.18 0 0 0 7.12 -11.26c0.38 -0.78 0.52 -1.82 1.56 -1.56s0.76 1.68 0.38 2.46c-1.58 3.7 -2.18 4.48 -3.24 6.6 1.16 0.4 1.82 -0.38 2.6 -0.76s1.8 -0.78 2.72 0.26a2 2 0 0 1 0.28 2.72 41.82 41.82 0 0 1 -2.86 5.04 3.08 3.08 0 0 1 1.82 5.06c-1.68 2.32 -2.46 4.92 -4 7.24s-2.72 4.54 -4.14 6.62c-1.48 2.96 -5.8 3.12 -4 -1.3 1.34 -3.42 5.3 -8.34 5.6 -9.84 -0.08 0 -5.9 0.5 -3.2 -4.66Z" fill="#41b751" stroke-width="1"></path><path d="M289.22 88.58c-4.28 0 -6.48 -2 -6.62 -7.26 -0.12 -2.58 3.5 -5.18 7.26 -5.3 2.34 0 5.32 3.88 5.18 6.86a5.22 5.22 0 0 1 -5.82 5.7Z" fill="#41b751" stroke-width="1"></path><path d="M260 77.3c0 4.54 -2.22 6.48 -6.48 6.36 -3.12 0 -5.84 -3.5 -5.58 -7.38a5.56 5.56 0 0 1 5.44 -5.32 6.32 6.32 0 0 1 6.62 6.34Z" fill="#41b751" stroke-width="1"></path><path d="M54.9 181.58c-4.6 3.5 -9.54 -2 -7.14 -8.8a45.32 45.32 0 0 1 2.98 -5.58 4.56 4.56 0 0 1 5.06 -2 4 4 0 0 1 3.62 4 12.74 12.74 0 0 1 -4.52 12.38Zm0.9 -6a10 10 0 0 0 0.78 -5.18c-0.14 -1.68 -1.16 -2.2 -2.6 -1.42A9.08 9.08 0 0 0 50.62 178c0.52 1.68 1.56 2 2.84 0.92a7.4 7.4 0 0 0 2.34 -3.3Z" fill="#41b751" stroke-width="1"></path><path d="M71.08 175.88A14 14 0 0 1 68 180.42a4 4 0 0 1 -6.74 -1.56c-1.56 -4.14 -0.26 -8 1.82 -11.52a4.12 4.12 0 0 1 5.18 -2.46A5 5 0 0 1 72.12 170a23.76 23.76 0 0 1 -1.04 5.88Zm-3.36 -0.78a7.58 7.58 0 0 0 0.9 -4.26c0 -1.04 0 -2.6 -1.04 -2.46s-2.46 0.12 -2.84 1.54a12.22 12.22 0 0 0 -1.04 3.76c-0.12 1.68 -0.78 4.28 1.16 4.8 1.56 0.26 2.34 -2.34 2.86 -3.38Z" fill="#41b751" stroke-width="1"></path><path d="M43.7 191.02c2.96 -1.2 12.66 -4 21.82 -6.84a15.04 15.04 0 0 1 3.36 -0.52c0.52 0 1.04 0 1.3 0.52a1.24 1.24 0 0 1 -0.52 1.28c-0.78 0.4 -1.42 0.92 -2.34 1.3a197.62 197.62 0 0 1 -21.8 6.5c-3.52 0.84 -4.62 -1.12 -1.82 -2.24Z" fill="#41b751" stroke-width="1"></path><path d="M43.5 172.38c-1.04 0.4 -1.82 1.18 -2.6 0.26s0 -1.68 0.52 -2.46c0.9 -1.3 1.82 -2.72 2.72 -4.14a1.74 1.74 0 0 1 3.24 1.16c-0.38 5.06 -0.9 10.1 -1.3 15.02 -0.12 1.04 -0.26 2 -1.54 2s-1.44 -1.16 -1.56 -2.2c-0.14 -3.16 0.38 -6.4 0.52 -9.64Z" fill="#41b751" stroke-width="1"></path><path d="M70 190.26c-0.76 0.38 -1.42 1.04 -2.2 1.42a173.2 173.2 0 0 1 -17.74 6.62c-0.9 0.26 -2 0.52 -2.46 -0.52s0.52 -1.44 1.42 -1.82c5.44 -2.34 11.02 -4.54 16.58 -6.74a8.52 8.52 0 0 1 3.64 -0.38c0.76 0.12 1.06 0.38 0.76 1.42Z" fill="#41b751" stroke-width="1"></path></g><g><path d="M246.46 373.54c-1.42 -5.18 1.3 -9.84 3.38 -14.5 0.7 -1.38 0.2 -3.28 2.32 -2.98 4 0.78 7.66 1.82 11.66 2.34a14.6 14.6 0 0 1 5.18 1.16c3.76 1.68 7.26 -0.14 10.64 -1.42s6.86 -2.98 10.36 -4.54 7.24 -3.5 10.74 -5.18c2.98 -1.42 6.36 -2.72 9.34 -4.14 4.66 -2.2 9.06 -4.66 13.72 -6.62 7.12 -3.1 13.74 -7.38 20.46 -11.14 4.28 -2.32 9.2 -3.5 13.48 -6s7.76 -2.2 12 -0.38c5.44 2 10.62 4.52 16 6.72 2.28 0.76 0.28 2.44 -1.04 2.6 -4.9 0.34 -11.48 3.8 -16.7 6 -6.36 2.46 -12.58 5.44 -19.04 7.64 -22 7.46 -28 11.32 -41.08 14.9 -2.98 0.9 -5.82 2.72 -8.8 3.88a31.12 31.12 0 0 0 -9.2 5.18 14.82 14.82 0 0 0 -6.22 12.18c0.14 2.2 0 4.54 0 6.6a3.62 3.62 0 0 1 -4.78 3.5c-5.58 -2.2 -11.66 -2.98 -17.62 -4.54 -2.98 -0.78 -6 -1.42 -8.82 -2.46 -1.54 -0.52 -3.36 -0.38 -4.92 -0.9 -0.78 -0.26 -1.16 -0.38 -1.16 -1.16 0.36 -2.46 -0.36 -4.4 0.1 -6.74Z" fill="#acd69a" stroke-width="1"></path><path d="M275.48 219.8c-0.78 1.42 -2 1.28 -2.98 1.8a68.14 68.14 0 0 0 -11 9.2c-5.84 5.32 -9.2 12.32 -13.08 18.92a98.72 98.72 0 0 0 -6.74 12.56c-2.66 5.74 -0.82 8.88 -5.18 8a100 100 0 0 0 -18.66 -2.58c-3.76 -0.26 -7.38 -1.3 -11 -1.3a43.82 43.82 0 0 1 -8.16 -1.04c-1.44 -0.26 -1.7 -0.52 -0.92 -1.82 9.46 -14.3 19.24 -24.72 33.56 -33.68a90 90 0 0 1 17.62 -8.8c2.2 -0.78 4.66 -1.04 6.72 -1.56 1.56 -0.38 3.5 -0.52 4.54 -2.2 0.52 -0.9 1.16 -0.12 1.68 0 4.4 0.56 8.94 1.98 13.6 2.5Z" fill="#acd69a" stroke-width="1"></path><path d="M246.86 212.92c-7.44 2.24 -0.8 -0.14 -20 6.48 -12.62 4.74 -13.54 6.96 -18.92 11.66 -1.8 1.82 -3.88 3.5 -5.56 5.44 -7.68 9.3 -9.74 13.42 -16.46 26.16 -0.38 0.78 -0.9 0.52 -1.28 0.78a26.76 26.76 0 0 1 -4.54 -0.38c-3.1 -0.52 -6.34 -0.4 -9.46 -0.78a8.64 8.64 0 0 1 -6.86 -5.06 20.58 20.58 0 0 1 -2.34 -8c-0.24 -3.62 1.56 -6.6 2.86 -9.7 1.04 -2.34 2.98 -4 3.1 -6.74 0 -1.04 1.3 -1.82 2.34 -2.34a68.24 68.24 0 0 1 15.42 -4.78c6 -1.04 11.78 -2.86 17.86 -3.64 4.86 -0.42 5.02 -2 25.14 -6.22 2.72 -0.52 5.3 -1.42 8 -2.2 3.64 -0.9 7.26 -0.52 10.62 -1.54 0.08 0.22 0.08 0.48 0.08 0.86Z" fill="#acd69a" stroke-width="1"></path><path d="M356.96 228.6a90.42 90.42 0 0 0 -15.28 3.38c-7.12 1.78 -8 0.74 -19.56 4.4 -3.86 1.22 -19.36 4 -19.56 4.14a118.24 118.24 0 0 0 -11.4 3.36c-1.2 0.36 -12.4 2.16 -14.76 6.62a35.16 35.16 0 0 0 -3.5 21.24c0.38 2.2 -2.34 4.14 -4.8 3.62 -7.52 -1.82 -13.3 -2 -14.5 -2.46s-1.56 -1.04 -0.92 -2.2c7.2 -12.34 10.78 -18.4 24.74 -31.74a70 70 0 0 1 15.42 -11.4 10 10 0 0 1 5.06 -0.9 50.2 50.2 0 0 0 14.38 -3.1 30.84 30.84 0 0 1 17.86 -0.26c5.44 1.28 11.28 2 16.72 3.36a34.14 34.14 0 0 1 10.1 1.94Z" fill="#acd69a" stroke-width="1"></path><path d="M199.7 369.66c-6.6 -1.42 -12.94 -3.62 -19.42 -4.8a7.54 7.54 0 0 1 -4.92 -2.86 22.98 22.98 0 0 1 -5.06 -9.2c-0.78 -4 2.72 -11 6.62 -12.56 1.42 -0.52 2.58 -0.52 2.72 1.3a0.82 0.82 0 0 0 0.9 0.9c3.1 0.14 6.22 1.04 9.32 0.9 2.72 0 4.28 1.56 3.76 4.28 -0.78 3.62 0 6.34 3.5 8a1 1 0 0 1 0.78 1.02c-0.14 4.48 1.42 8.62 1.8 13.02Z" fill="#acd69a" stroke-width="1"></path><path d="M36.88 94.4a58.58 58.58 0 0 1 -9.7 0.26c-4.28 -0.26 -8.56 -1.02 -11.4 -4.92 -1.56 -2.32 -2.2 -4.78 -0.52 -6.86a20 20 0 0 1 8.42 -7.26c1.3 -0.52 2.46 -1.16 3.88 -0.12a2.4 2.4 0 0 0 1.68 0.12 15.18 15.18 0 0 1 7.64 0.14 12.5 12.5 0 0 1 8 4 5.02 5.02 0 0 1 1.16 4c-0.12 2.98 0.52 6.62 -2.72 8.68 -2.02 1.44 -4.36 1.32 -6.44 1.96Z" fill="#acd69a" stroke-width="1"></path><path d="M93.24 37.16a31.8 31.8 0 0 1 -9.2 -0.92 67.06 67.06 0 0 0 -10 -0.9h-2.2c-1.16 0 -1.56 -0.9 -1.82 -1.82s0.52 -1.42 1.44 -1.54a18.2 18.2 0 0 1 5.3 -0.92c7.78 0 15.42 1.18 23.2 1.56 4.66 0.26 9.06 0.4 13.72 1.04 2.86 0.38 6 -0.14 8.8 1.56 1.18 0.76 2.6 1.28 2.34 2.58s-2 1.42 -3.36 1.42a82.22 82.22 0 0 1 -11.28 -0.76c-2.58 -0.26 -5.3 -0.14 -8 -0.52 -3.24 -0.26 -6.62 -1.18 -8.94 -0.78Z" fill="#acd69a" stroke-width="1"></path><path d="M70.3 50.1c6.22 0.52 12.44 0.26 18.8 0.78 4.26 0.26 8.66 0.14 12.94 0.78s8.42 0.78 12.56 1.16a8.64 8.64 0 0 1 4 1.56c1.16 0.78 1.16 1.56 -0.26 2.2a10.22 10.22 0 0 1 -4 1.04c-9.2 -0.38 -18.4 -2.72 -27.72 -2.34a47.28 47.28 0 0 1 -7.26 -1.02 3.7 3.7 0 0 0 -1.68 -0.14c-3.36 0.78 -6.48 -0.78 -9.72 -0.9 -1.02 0 -2.2 -0.4 -2.2 -1.56s1.44 -1.3 2.46 -1.42a11.72 11.72 0 0 1 2.08 -0.14Z" fill="#acd69a" stroke-width="1"></path><path d="M70 59.56c5.56 -0.78 11.26 0.14 16.84 0.4 4.8 0.26 9.46 0.38 14.24 1.02a93.36 93.36 0 0 0 12.44 0.78 5.38 5.38 0 0 1 2.98 0.78c0.78 0.4 1.68 0.92 1.56 1.82a2.18 2.18 0 0 1 -2.34 1.82c-9.16 0.48 -15.84 -1.06 -25.52 -1.7 -8 -0.38 -16 -1.28 -24 -2 -1.04 -0.14 -2 -0.4 -1.82 -1.56s0.78 -1.56 2 -1.42a15.78 15.78 0 0 0 3.62 0.06Z" fill="#acd69a" stroke-width="1"></path><path d="M103.34 76c-8.68 -0.4 -17.48 -1.04 -26.3 -1.56 -4.52 -0.26 -8.68 -1.42 -13.08 -1.42a1.38 1.38 0 0 1 -1.56 -1.18 1.28 1.28 0 0 1 1.18 -1.54 9.74 9.74 0 0 1 5.44 -0.4 13.22 13.22 0 0 0 7.12 0.26 36.58 36.58 0 0 1 7.52 0.4c6 0.26 12 1.04 17.86 0.9 3.64 -0.12 7.26 0.78 10.76 0.9 1.3 0 3.36 0.78 3.1 2.46s-2.2 1.7 -3.62 1.7c-2.6 0.28 -5.32 -0.76 -8.42 -0.52Z" fill="#acd69a" stroke-width="1"></path><path d="m91.42 46.36 -20 -1.3c-1.16 -0.14 -2.46 -0.52 -2.46 -1.82s1.56 -1.42 2.46 -1.42a166.94 166.94 0 0 1 24 0.64c5.44 0.26 10.62 1.7 16.18 1.56a5.82 5.82 0 0 1 4.54 1.68c0.9 1.04 0.78 1.68 -0.52 2a15.76 15.76 0 0 1 -6.86 0.78c-20.26 -2.48 -17.02 -2.1 -17.34 -2.12Z" fill="#acd69a" stroke-width="1"></path><path d="M68.36 88.2c4.28 0 8.42 0.24 12.32 -0.14a138.48 138.48 0 0 1 16.32 0.26 89.64 89.64 0 0 1 11.78 0.78c1.56 0.26 3.76 0.38 3.62 2.2s-2.46 1.3 -3.88 1.3a44.3 44.3 0 0 1 -11.02 -0.4c-2 -0.52 -4.14 0.26 -6.34 0.14 -3.62 -0.14 -7.26 -1.04 -11 -0.4a15.1 15.1 0 0 1 -5.44 -0.26c-4 -0.9 -8.16 0.14 -12.32 -0.76 -0.78 -0.14 -1.68 0.12 -1.8 -1.04s1.02 -0.78 1.54 -1.04c2.08 -1.3 4.42 -0.14 6.22 -0.64Z" fill="#acd69a" stroke-width="1"></path><path d="M104.24 85.6c-4 -0.78 -8.16 0.12 -12.3 -0.9a62.32 62.32 0 0 0 -11.02 -1.18c-4 -0.26 -8 -0.52 -12.3 -0.52 -1.56 0 -3.36 -0.12 -4.92 -0.12a1.7 1.7 0 0 1 -1.7 -1.68c-0.14 -0.92 0.52 -1.42 1.42 -1.56 3.12 0 6.22 -0.9 9.32 -0.12a23.8 23.8 0 0 0 5.2 0.12 139.62 139.62 0 0 1 17.86 1.42c2.46 0.4 4.92 -0.38 7.38 0a6.76 6.76 0 0 1 3.38 2.2 1 1 0 0 1 0 1.18 2.9 2.9 0 0 1 -2.32 1.16Z" fill="#acd69a" stroke-width="1"></path><path d="M44 219.8c8.26 -0.42 7.66 -1.64 17.36 0.12 0.76 0.14 1.42 0.26 1.28 1.04s-0.9 0.78 -1.54 0.9c-1.6 0.4 -4.2 -1.7 -16.98 -0.38 -0.52 0 -1.3 0.26 -1.42 -0.4s0.4 -0.9 1.3 -1.28Z" fill="#acd69a" stroke-width="1"></path><path d="M38.18 213.58a37.78 37.78 0 0 1 15.04 -1.82c2.96 0.14 6.2 0.14 9.18 0.4 1.18 0.12 1.44 -0.26 1.82 -1.3 2.6 -7.12 8 -11.54 14.24 -15.28a3.26 3.26 0 0 1 4.54 1.54c4.28 8.16 9.84 15.68 13.86 24 0.52 1.3 0.26 1.56 -0.52 2.2 -3.1 2.2 -6.22 4.28 -9.32 6.48 -8.54 6.2 -6.68 9.72 -11.66 9.72 -6.34 0.12 -12.82 0.38 -19.18 0.76a16.82 16.82 0 0 0 -8.54 2.22 1.88 1.88 0 0 1 -2.98 -1.04c-3.76 -8 -7.38 -15.68 -11.14 -23.7 -0.78 -1.44 0.4 -2.34 1.42 -2.86a10 10 0 0 1 3.24 -1.32ZM74 236.24a145.18 145.18 0 0 1 -10 -20.2 1.78 1.78 0 0 0 -1.82 -1.16c-4 -0.14 -8.16 -0.4 -12.3 -0.78a40.64 40.64 0 0 0 -12 1.42c-1.82 0.38 -2.34 1.42 -1.56 2.98 3.1 6.48 6.48 12.96 9.72 19.42 0.52 1.18 1.16 1.18 2.2 0.92a30.32 30.32 0 0 1 10.1 -1.82Zm3.5 0.4c3.76 -6.48 9.84 -10.36 15.42 -14.38 1.04 -0.78 0.9 -1.3 0.38 -2.2 -3.88 -8 -9.06 -15.16 -12.82 -23.32 -0.9 0.52 -1.68 1.16 -2.58 1.68 -4.16 3.36 -8.56 6.6 -11.28 11.4a6.14 6.14 0 0 0 0 6.48c2.76 4.7 4.4 10.64 10.94 20.34Z" fill="#acd69a" stroke-width="1"></path><path d="M47.64 227.18a70.18 70.18 0 0 1 13.74 0.12c0.5 0.14 1.42 0.26 1.28 1.18s-0.9 1.02 -1.54 1.02l-8.42 -0.38h-4.92c-0.52 0 -1.56 0.38 -1.7 -0.52s0.92 -1.04 1.56 -1.42Z" fill="#acd69a" stroke-width="1"></path><path d="M79.64 204.26a1.22 1.22 0 0 1 -0.4 1.16c-3.1 3.1 -6 6.6 -8.8 10 -0.4 0.38 -0.9 1.28 -1.56 0.9s-0.26 -1.3 0.14 -1.82a46.7 46.7 0 0 1 8.8 -10c0.64 -0.64 1.16 -1.02 1.82 -0.24Z" fill="#acd69a" stroke-width="1"></path><path d="M82 211.24a1.68 1.68 0 0 1 -0.52 1.18 83.12 83.12 0 0 0 -6.46 9.18c-0.4 0.52 -0.92 1.7 -1.7 1.18s-0.12 -1.44 0.14 -2.2a34.26 34.26 0 0 1 6.74 -9.34c0.48 -0.26 1.12 -0.78 1.8 0Z" fill="#acd69a" stroke-width="1"></path><path d="m86.5 219.4 -7.12 7.52c-0.52 0.52 -1.3 1.3 -2 0.9s0 -1.42 0.52 -2a43.86 43.86 0 0 1 7.26 -7.4c1.32 -0.98 2.38 -0.06 1.34 0.98Z" fill="#acd69a" stroke-width="1"></path><path d="M100.1 292.6c-1.82 5.04 -5.06 8.92 -7.64 12.94 -2.2 3.5 -4.54 6.74 -7.12 10a6.2 6.2 0 0 1 -3.38 2.6 5.24 5.24 0 0 1 -6 -1.42 5.88 5.88 0 0 1 -0.26 -6.62c4.66 -6.34 9.06 -12.82 13.86 -19.16a126 126 0 0 1 10.66 -10.94c0.4 -0.4 1.04 -0.92 1.7 -0.52a1.04 1.04 0 0 1 0.52 1.56 84.72 84.72 0 0 1 -2.34 11.56Zm-2.98 2.2c-1.42 -1.18 -2.84 -2.2 -4.14 -3.12 -0.92 -0.78 -1.56 -0.78 -2.2 0.4 -0.68 1.8 -3.06 4 -10.24 14.88 -1.82 2.86 -1.82 3.38 0.78 5.58 1.64 1.56 2.14 2 2.94 1.06s12.52 -18.3 12.86 -18.8Zm-3.76 -5.44 4 3.48c0.5 0.4 1.02 0.78 1.16 -0.24 0.38 -2 0.78 -4 1.3 -6.22 0.12 -0.92 -0.26 -1.18 -0.92 -1.56s-0.9 0.12 -1.16 0.38c-1.4 1.44 -2.82 2.8 -4.38 4.16Zm-10.36 26.16a9.32 9.32 0 0 1 -5.44 -4.92 4 4 0 0 0 0.14 5.18c1.16 1.42 3.22 1.42 5.3 -0.26Z" fill="#acd69a" stroke-width="1"></path></g><g><path d="M171.6 212.8c-4.92 -0.9 -10.62 -0.78 -16.32 -2.34A148.5 148.5 0 0 1 140 205.8a5.48 5.48 0 0 1 -3.5 -3.5 127.82 127.82 0 0 0 -5.84 -13.72A289.36 289.36 0 0 1 117.46 158c-2.2 -5.56 -4.8 -11.14 -7.12 -16.58A78.1 78.1 0 0 1 107.88 134a24.98 24.98 0 0 0 -2.22 -4.54c-0.9 -1.56 -2.32 -2.98 -1.42 -5.06 0.26 -0.76 -0.52 -0.9 -1.04 -1.28a4.36 4.36 0 0 1 -0.9 -4.8 4 4 0 0 1 4.92 0.26c2.98 3.76 7.38 4.66 11.4 6.34 1.68 0.78 3.12 1.56 4.92 2.2 7 2.92 20.42 -0.2 34 -1.28 5.44 -0.4 10.76 -1.18 16.32 -1.56 3.7 -0.28 7.58 -0.28 11.48 -0.28 0.9 0 1.28 0.24 1.42 1.16C188 129.52 189.22 134 190.9 138c2.72 6.48 4.14 13.22 6.48 19.82 1.16 2.98 2.2 6 3.36 9.06 0.92 2 -0.38 3.5 -1.04 5.06 -0.12 0.52 -1.02 0.26 -1.42 0a72 72 0 0 0 -11 -4.54c-1.56 -0.52 -2.2 0 -2.98 1.42 -3.38 4.8 -1.82 8.94 1.04 13.1 1.16 1.68 -0.14 2 -1.44 2a14.52 14.52 0 0 0 -8.54 2.86c-0.9 0.78 -1.3 1.28 -0.9 2.46 0.76 2.72 2.84 4 4.92 5.44 0.52 0.38 1.16 0.52 1.68 0.9 4.54 2.2 4.78 3.76 0.52 6.34a8.7 8.7 0 0 0 -4.66 7.66c0.12 2.58 -1.04 3.22 -5.32 3.22Z" fill="#41b751" stroke-width="1"></path><path d="M139.48 98.56A71.88 71.88 0 0 1 116 96c-0.9 -0.12 -0.9 -0.78 -0.78 -1.42 1.3 -6.34 1.82 -12.96 4 -19.3 7.78 -23.3 8.68 -41.9 10 -45.6 0.26 -1.04 -0.4 -1.56 -1.42 -2 -6.86 -2.16 -26.92 -3.42 -39.26 -2.72 -1.82 0.14 -2.32 -0.5 -2.32 -2.32 0.12 -3.5 0.12 -6.86 0 -10.36 0 -1.56 0.5 -2.2 2.2 -2 0.2 0 63.26 1.58 63.46 1.56 0.52 0 1.82 -0.26 1.3 0.9 -0.58 1.52 -0.6 15.84 -0.9 19.7 -0.14 1.02 -0.4 1.42 -1.56 1.42 -2.86 0.12 -5.84 1.16 -8.82 0.9 -1.16 -0.12 -1.42 0.78 -1.42 1.68 0 7.14 -3.34 30.24 -1.72 42 0.2 1.56 1.28 1.82 3.8 1.72 2 0 4 -0.38 6.22 -0.38 1.28 0 1.8 0.26 1.68 1.68a153.3 153.3 0 0 0 -0.9 15.42c0 1.16 -0.78 1.42 -1.7 1.42a59.5 59.5 0 0 1 -8.38 0.26Z" fill="#41b751" stroke-width="1"></path><path d="M145.3 344.54c0.92 -4 1.3 -8 3.76 -11.54 7.02 -9.68 0 -6.92 18.4 -23.7 2.32 -2.2 5.56 -2.84 7.76 -5.18 1.04 -1.16 2.6 0.26 2.98 0.9 2.2 2.6 4.68 2.2 7.26 1.18 3.12 -1.3 4.92 -0.26 4.8 2.84a11.5 11.5 0 0 0 0.78 4.66 26.96 26.96 0 0 1 1.42 8.42 3.12 3.12 0 0 1 -1.16 2.86 114.28 114.28 0 0 1 -13.48 12.68c-2.2 1.56 -4 3.76 -6.22 5.18 -4.14 2.72 -8.42 5.44 -12.56 8 -5.44 4.02 -15.58 2.7 -13.74 -6.3Z" fill="#41b751" stroke-width="1"></path><path d="M192.58 352c-0.26 -1.56 0.78 -2.98 1.18 -4.54 1.8 -5.3 5.82 -9.32 9.18 -13.72a46.96 46.96 0 0 1 10.5 -9.08c4.54 -2.84 8.8 -6.34 14 -8.42A3.26 3.26 0 0 0 230 314c0.24 -1.16 1.28 -1.3 2.2 -0.26a3.26 3.26 0 0 1 0.76 1.04c1.56 4 4.94 5.82 8.82 6.86a3.52 3.52 0 0 1 2.32 4.92c-2 5.84 0.74 9.66 -4.52 13.86a78.52 78.52 0 0 1 -14.26 9.72 137.18 137.18 0 0 1 -13.46 6.6 16.76 16.76 0 0 1 -7.52 1.18 47.38 47.38 0 0 1 -7.26 -0.78c-3.32 -0.44 -4.5 -1.72 -4.5 -5.14Z" fill="#41b751" stroke-width="1"></path><path d="M271.48 294.54c-6.9 -0.78 -14.86 -6.58 -22.16 -7.52 -1.82 -0.26 -2.72 -2.2 -2 -4.54a25.34 25.34 0 0 0 1.56 -6.22c0.14 -0.9 0.9 -1.54 1.42 -1.16 2.46 1.82 5.32 1.04 8 1.42a82.7 82.7 0 0 0 15.04 0.92 16.6 16.6 0 0 1 7.12 0.9 0.44 0.44 0 0 1 0.38 0.14c2.86 2.98 6 1.54 8.94 0.12 5.44 -2.58 11.28 -4.14 16.72 -6.6 6.6 -2.98 13.46 -5.18 20 -8 2.72 -1.16 5.82 -1.68 8.54 -2.72 4.14 -1.42 8.54 -2 12.82 -3.36a6 6 0 0 1 7.64 4.52c0.4 1.82 -0.9 2.48 -2.2 2.86 -31.9 10.42 -13.5 4.64 -28.24 8.94 -2.72 0.78 -5.3 2 -8 2.98 -7.26 2.58 -14.38 5.04 -21.5 7.9s-14.64 4.88 -21.56 8.64a2.82 2.82 0 0 1 -2.52 0.78Z" fill="#41b751" stroke-width="1"></path><path d="M224 278.48a17.04 17.04 0 0 0 6.46 2.84 22.52 22.52 0 0 1 5.44 1.68c2 0.92 2 1.82 1.56 4 -0.52 3.5 -2.2 6.6 -1.3 10.24 0.4 1.54 -0.5 2.46 -1.54 3.36s-1.7 0.14 -2.72 -0.12c-8.78 -2.94 0 -0.16 -24.88 -7.66 -7.28 -2.56 -10.92 -0.74 -13.86 -9.58a18.9 18.9 0 0 1 -0.9 -4.78c-0.26 -3.38 1.16 -6.36 2.2 -9.46a1.42 1.42 0 0 1 1.3 -0.92c2.2 0 4.52 -0.38 6.48 0.92 0.5 0.26 1.16 0.52 1.54 0.26 2.72 -1.42 5.58 -0.92 8.56 -0.4a47.74 47.74 0 0 0 6 0.4 119.7 119.7 0 0 1 16.72 2 5.12 5.12 0 0 1 4 4.92v1.82c0 2.98 -1.16 3.88 -4.26 3.1s-6.22 -2.32 -9.34 -2.98c-0.38 -0.12 -1.04 -0.12 -1.42 -0.26a0.54 0.54 0 0 1 -0.04 0.62Z" fill="#41b751" stroke-width="1"></path><path d="M226.52 195.06a3.1 3.1 0 0 1 -3.5 -2.86c-0.12 -1.56 1.18 -2.58 2.6 -3.1a247.24 247.24 0 0 0 32.76 -12.32c6 -2.64 5.62 -3.1 16.32 -9.84 6 -3.88 10.62 -8.94 15.8 -13.46 0.78 -0.52 0.92 -1.68 1.7 -2.2s1.3 -1.3 2.32 -0.4 0.78 1.56 0.26 2.6a31.28 31.28 0 0 1 -4.52 6.22 80.78 80.78 0 0 1 -19.82 16.96 97.74 97.74 0 0 1 -15.8 8.16c-8.42 3.5 -16.84 6.6 -25.4 9.46a16.16 16.16 0 0 1 -2.72 0.78Z" fill="#41b751" stroke-width="1"></path><path d="M199.46 188a15.42 15.42 0 0 1 8.8 -4.92 4 4 0 0 1 4.28 1.44 20.76 20.76 0 0 0 2.32 2.58A3.08 3.08 0 0 1 214 192a4.62 4.62 0 0 0 0.38 8.42c1.44 0.92 3.38 1.18 3.64 3.38 0.8 4.86 -4.68 1.7 -8 5.3a1.42 1.42 0 0 1 -0.9 0.26c-9.36 1.72 -20.56 -10.54 -9.66 -21.36Z" fill="#41b751" stroke-width="1"></path><path d="M298 71.48c0 0.78 -0.38 0.78 -1.04 0.38a165.6 165.6 0 0 0 -30.3 -6.98 48.9 48.9 0 0 0 -11.4 -1.04c-1.56 0.12 -2.6 -0.26 -1.3 -2 0.24 -0.36 2.92 -8.82 13.86 -6.98 6.36 1.16 12.82 2.32 19.04 4a25.04 25.04 0 0 1 8.58 3.14c0.38 0.38 1.02 0.78 1.16 1.16a82.26 82.26 0 0 1 1.4 8.32Z" fill="#41b751" stroke-width="1"></path><path d="M164.22 276.66c0.9 -2.2 -0.52 -4.66 0.26 -7.12a10 10 0 0 1 12.18 -6.48c1.42 0.38 2.58 1.68 4.14 2 0.9 0.12 1.16 1.28 0.38 2.2 -2 2.98 -1.42 6.46 -0.9 9.84 0.12 1.16 0.52 2.32 0.52 3.36a2.76 2.76 0 0 1 -3.5 3.12c-3.36 -0.52 -6.34 -1.82 -9.84 -2.2a4.64 4.64 0 0 1 -3.24 -4.72Z" fill="#41b751" stroke-width="1"></path><path d="M271.48 298.42c-0.14 0.38 -0.14 0.9 -0.26 1.3 -1.82 3.1 -1.56 6.6 -1.44 10a3.12 3.12 0 0 1 -3.88 3.1 46.4 46.4 0 0 0 -8.54 -2.58 2.9 2.9 0 0 1 -2.34 -2.6 17.3 17.3 0 0 1 -0.52 -5.82 53.06 53.06 0 0 1 0.9 -7.52c0.26 -2 1.7 -2.72 3.5 -1.68a16.18 16.18 0 0 0 5.58 1.16c3.8 0.98 6.22 0.06 7 4.64Z" fill="#41b751" stroke-width="1"></path><path d="M319.78 86c7.46 0.36 11.44 7.66 2.72 20.48 -1.68 2.58 -6.6 2.32 -8.68 -0.26 -3.36 -4.28 -2.32 -8.68 -0.78 -13.08 0.78 -2.34 1.3 -4.8 3.5 -6.22a5.42 5.42 0 0 1 3.24 -0.92Z" fill="#41b751" stroke-width="1"></path><path d="M38.96 66.94c2.46 -3.1 5.84 -5.18 8.16 -8a2.34 2.34 0 0 1 3.62 -0.4c1.18 1.04 0.78 2.2 0.26 3.38a24.74 24.74 0 0 1 -4.66 6.34 33.86 33.86 0 0 0 -3.36 4.92c-1.42 2.86 -2.2 2.98 -5.44 2.46 -1.42 -0.26 -3.12 0.26 -3.12 -1.8a184 184 0 0 1 0 -20.74c0.14 -1.8 1.3 -2.84 2.72 -2.58s1.82 2 1.7 3.36a78.7 78.7 0 0 0 -0.26 11.28 1.48 1.48 0 0 0 0.38 1.78Z" fill="#41b751" stroke-width="1"></path><path d="M234.3 73.68c2.46 -1.82 5.82 -2.2 7.5 0.4a4.46 4.46 0 0 1 0.78 3.88c-1.42 4 -2.72 8.16 -4.14 12.44s-6.46 5.3 -8 0.52c-2.32 -5.52 -0.24 -13.88 3.86 -17.24Z" fill="#41b751" stroke-width="1"></path><path d="M256.32 120.18c4.66 1.42 9.32 1.42 13.86 2.2 2 0.26 2.58 1.18 3.36 3.38 1.16 3.1 0.52 6 0.4 8.94a4.68 4.68 0 0 1 -6.62 3.3 9.62 9.62 0 0 1 -4.78 -6.74 9.46 9.46 0 0 0 -3.12 -5.18 13.16 13.16 0 0 1 -3.1 -5.9Z" fill="#41b751" stroke-width="1"></path><path d="M212.92 175.88a1.62 1.62 0 0 1 -1.82 -1.42c-0.38 -1.42 -0.5 -2.6 0.92 -3.62a40.56 40.56 0 0 1 5.04 -2.34 33.02 33.02 0 0 0 11.28 -9.84 44 44 0 0 0 4.28 -6.66 2.78 2.78 0 0 1 3.48 -1.8c0.92 0.26 1.56 3.88 1.04 4.92 -3.1 5.18 -6.34 10.5 -11.4 14.24a41.6 41.6 0 0 1 -12 6.22 1.22 1.22 0 0 0 -0.82 0.3Z" fill="#41b751" stroke-width="1"></path><path d="M20.3 60a2.12 2.12 0 0 1 1.56 0.4c2.98 3.74 6.86 6.6 9.08 11.14 0.5 1.16 1.28 2.46 0 3.36s-2.86 0.26 -4 -1.04c-0.78 -1.04 -1.3 -2 -2 -2.98A33.46 33.46 0 0 0 20 65.14c-2.24 -1.98 -2.74 -5.3 0.3 -5.14Z" fill="#41b751" stroke-width="1"></path><path d="M367.2 274.32c0 3.68 -3.78 1.62 -6.88 4.16 -1.42 1.02 -2.46 0 -2.98 -1.3 -0.9 -1.82 -0.26 -3.88 -0.9 -6 -0.12 -0.9 2.34 -1.82 3.62 -1.3a15.8 15.8 0 0 0 5.44 1.56c1.44 0.3 1.7 1.6 1.7 2.88Z" fill="#41b751" stroke-width="1"></path></g><g><path d="M382.48 343.36c-0.9 -1.16 -2.18 -2 -2 -3.5a24.22 24.22 0 0 1 2.2 -9.06c0.96 -2 0.52 -2.32 -1.28 -2.46 2 -2 1.28 -3.36 -1.44 -4.14 -6.34 -1.68 -12.42 -3.76 -18.78 -6 3.1 -1.54 8 -3.44 12.32 -5.18 0.64 -0.14 1.8 -0.4 1.02 -1.3s-0.9 -1.82 -1.68 -2.2c-4.28 -2.86 -5.18 -5.58 -2.84 -10.24 4.92 -9.28 5.24 -7.42 6.12 -11.86a22.26 22.26 0 0 0 -1.46 -11.58 6 6 0 0 0 -4.14 -3.76c-3.26 -0.82 -6 -2.72 -9.34 -3.5 -0.52 -0.12 -1.28 -0.38 -0.52 -1.16a5.12 5.12 0 0 0 1.04 -4.14c0 -1.16 -0.26 -2 -1.42 -2.46 -3 -1.1 -6 -2.34 -9.32 -3.5 4.5 -2 13.58 -3.1 20.72 -8.3 1.28 -0.92 0.9 -0.9 0.12 -1.68 -3.88 -4 -4 -8.94 -3.1 -14a6.34 6.34 0 0 1 2.2 -4c0.38 -0.26 0.38 -0.78 0.26 -1.3 -0.38 -2.2 -2 -2.72 -3.88 -2.72a49.22 49.22 0 0 1 -8.68 -1.04c-6.62 -1.42 -13.6 -1.54 -20.22 -2.84a79.3 79.3 0 0 0 -11.78 -1.42c-2 0 -4.4 -0.66 -6.74 -0.92a3.74 3.74 0 0 1 1.56 -2.46c0.9 -0.52 1.04 -1.3 1.42 -2a16.44 16.44 0 0 0 1.04 -7.14c0.26 -5.56 0.14 -11.38 0 -16.96 -0.38 -14.88 1.62 -5.86 -8.54 -47.54a14.66 14.66 0 0 0 -10.76 -11.66c-8.26 -2 -16.14 -3.82 -24.62 -2.58 -0.78 0 -2 0.24 -2.2 -1.18a6 6 0 0 0 -2.32 -4.52c5.18 0.52 9.72 2 14.5 1.54 2 -0.2 4.14 -1.28 6 -0.76 4 1.42 7.52 0 11.14 -1.3 5.84 -2.2 9.32 -6.86 11.66 -12.44 0.48 -1.08 3.02 -2.9 -0.74 -3.82a6.56 6.56 0 0 1 -4.18 -7.7 34.5 34.5 0 0 1 2.84 -8.68 8.34 8.34 0 0 1 6.36 -2.2c-5.44 3.88 -7.78 11.14 -5.18 16.7 0.48 2 4.28 2.6 2.98 -0.9a13.16 13.16 0 0 1 -0.4 -6.74c0.52 -3.24 2.6 -5.44 4.14 -8 0.26 -0.26 0.52 -0.38 0.78 -0.26 1.56 0.4 2.86 0.92 3.12 2.74a14.82 14.82 0 0 1 -0.92 7.5 32.46 32.46 0 0 1 -3.18 6.42 0.94 0.94 0 0 0 1.3 1.32 9.72 9.72 0 0 0 1.88 -1.64 18 18 0 0 0 4.16 -12.44 6.8 6.8 0 0 0 -4.92 -6.86c-0.78 -0.26 -1.56 -1.04 -2.34 -1.04 -3.24 0 -4.54 -2 -6.34 -4.16a19.88 19.88 0 0 0 -9.08 -5.56 7.08 7.08 0 0 1 -5.3 -4.92 10.36 10.36 0 0 0 -6.6 -7.86c-2 -0.78 -3.88 -1.42 -6 -2.34 -1.16 -0.52 -3.12 -0.78 -3.5 -1.68 -0.62 -1.34 1 -1.66 2.34 -2.98 3.36 -4.4 8 -7.78 11.9 -11.78a0.88 0.88 0 0 1 1.3 -0.14 4.76 4.76 0 0 0 6 -1.8c1.3 -1.56 0.26 -3.64 -0.52 -5.06 -2 -4 -4.48 -4 -6.86 -0.14a4.86 4.86 0 0 0 -1.04 2.74c0 0.5 0 1.02 -0.52 1.28 -3.5 2 -5.82 5.32 -8.68 8 -2.2 2 -4.14 4.14 -6.34 6.34 -1.82 -4.14 -4.14 -7.5 -5.56 -11.4 -1.04 -2.72 -2.48 -5.3 -3.76 -7.9 -0.52 -1.04 -0.66 -1.68 0.78 -2.58a4.52 4.52 0 0 0 0.38 -7.66 5.24 5.24 0 0 0 -5.06 0.4c-2.72 1.3 -3.74 5.18 -1.16 6.6s3.24 4.28 4.28 6.74c1.82 4.14 3.1 8.16 4.92 12.18 0.9 2 1.68 4 2.72 6.48 -3.76 -1.56 -7.14 -1.36 -10.62 -1.82a16.58 16.58 0 0 0 -8 0.12 16 16 0 0 0 -7.42 6.4 2.84 2.84 0 0 1 -2.58 1.42 22 22 0 0 0 -6.36 0.9c-3.1 1.18 -4.4 3.76 -5.44 6.62 -0.26 1.02 -0.64 1.58 -1.8 1.42a4.54 4.54 0 0 0 -4.28 1.82c-2.6 3.88 -5.18 8 -4.28 12.94 0.4 2.2 0.24 5.1 2.72 6.1 2 0.82 2 1.8 1.56 3.36a10 10 0 0 0 -0.78 2.72c-0.26 3.76 -0.78 7.38 2.2 10.5a30.72 30.72 0 0 0 16.46 8.8c2.2 0.42 15.6 4 16 4.14 2.46 0.52 2.46 0.52 1.04 2.34 -2.72 3.5 -6.74 3.24 -9.2 -0.78 -0.4 -0.66 -0.72 -1.34 -1.06 -2a1.14 1.14 0 0 0 -2 0.96 15.54 15.54 0 0 0 3.76 5.32c-4 0.78 -7.76 0.52 -11.4 1.68a36 36 0 0 0 -11.78 6.48 13 13 0 0 0 -5.32 8.54c-0.26 1.16 0.26 2.86 -0.26 3.38 -4 4 -3.06 8 -21.1 20.32 -1.56 1.3 -3.38 2.46 -5.18 0.4 -0.14 -0.26 -0.78 -0.26 -1.04 -0.26 -0.92 0.12 -1.28 -0.4 -1.68 -1.3 -2 -4.58 -3.24 -9.06 -4.94 -13.6a96.38 96.38 0 0 1 -3.48 -10.24c-1.18 -4.66 -1.7 -9.44 -2.98 -14.12 -1.3 -5.18 -2.46 -6.34 -7.66 -6.2 -8.16 0.12 -16.58 0.52 -24.74 1.28 -2 0.14 -3.88 0 -6 0.14 -4.28 0.38 -8.8 0.88 -13.1 1.56 -3.86 0.6 -7.62 0.86 -11.52 1.68a10.68 10.68 0 0 1 -10 -2.34 14.7 14.7 0 0 0 -1.54 -1.16c-3.24 -2.34 -7 -3.76 -10.38 -6a12.8 12.8 0 0 0 -6 -2.6c-1.3 -0.38 -2.48 0.12 -2 1.68 0.26 1.16 0.52 2 -0.9 2.46a1.24 1.24 0 0 0 -0.4 1.68c1.42 1.44 1.42 3.64 2.6 5.2 2.32 3.62 3.88 7.64 6.22 11.26a39.5 39.5 0 0 1 3.74 8.68c1.44 4.28 3.84 8.26 5.18 12.44a2 2 0 0 1 -0.76 2.84 6.78 6.78 0 0 0 2 11.4 5.04 5.04 0 0 1 2.46 1.04c-2.98 3.76 -3.1 9.06 2.86 10 1.04 0.12 0.64 0.64 0.52 1.42 -0.66 4 1.68 6.48 5.56 5.56 1.16 -0.26 1.16 0.52 1.42 1.04a59.56 59.56 0 0 0 4.28 8.82 31.64 31.64 0 0 0 5.58 4.78 33.46 33.46 0 0 0 8.54 6c0.52 0.26 1.16 0.9 1.68 0.12 1.56 -2 3.76 -1.16 5.58 -1.16s3.36 0.38 5.04 0.52c3.38 0.26 6.74 0.64 9.86 1.16a86 86 0 0 1 11.52 2.2 2.84 2.84 0 0 0 1.42 0 1.78 1.78 0 0 0 1.56 -1.42c0.12 -0.78 -0.4 -1.28 -1.3 -1.56a3.48 3.48 0 0 1 -2.46 -1.42c2.72 1.04 5.18 0.12 7.52 -0.14 -0.7 2 -3.56 5.88 -1.04 8a3.68 3.68 0 0 0 4.14 0.12c2.48 -0.96 4 -3.36 6.22 -4.78 1.12 -0.78 2 -2.42 3.34 -2.5 1.72 -0.14 2 3.5 9.02 1.06a16.54 16.54 0 0 0 6.56 -4.26c1.28 -1.56 1.54 -3.76 2.72 -5.18 1.8 -2.2 3.74 -4.16 7.12 -3.76a8.22 8.22 0 0 0 3.36 -0.78c6.22 -2 11.86 -5.32 17.88 -8 1.28 -0.54 2 -0.52 2.2 1.04a45.04 45.04 0 0 1 0.14 6 87.08 87.08 0 0 0 -0.52 12c0.12 1.8 -0.26 2 -1.7 2.2 -14.66 3.04 -43.8 13.34 -57.76 15.14a81.66 81.66 0 0 0 -10.76 2.6c-3.24 0.9 -6.34 2.2 -9.7 1.3a2 2 0 0 0 -2.2 1.16c-1.82 3.36 -3.44 6.5 -4.94 10 -2.96 6.92 -3.36 13.46 2.72 19.04 0.92 1.04 0.4 1.16 -0.38 1.54 -2.72 1.56 -4.66 9.08 -4.14 11.8 0.9 5.04 4.78 7.12 8.8 9.2 0.4 0.12 1.04 -0.26 1.3 0.52a0.84 0.84 0 0 1 -1.04 0.38c-0.52 0 -1.16 -0.9 -1.68 0 -1 1.26 2.44 2.54 2.72 7 0.52 6.6 0.44 12.86 -4.92 17.86 -3.28 3.08 -6.36 6.36 -9.32 9.72a55.76 55.76 0 0 0 -7.66 10.36 48 48 0 0 0 -4 14.12A7.5 7.5 0 0 0 154 352.4a21.28 21.28 0 0 0 7.38 -1.68 35.72 35.72 0 0 0 8.42 -4 18.62 18.62 0 0 0 -0.78 7.64c0.56 4.3 3.62 9.86 8.8 10.24a38.12 38.12 0 0 1 4.54 0.78c21.72 6.6 14.26 3.54 32.78 8.42 5.06 1.42 31.88 8.32 37.16 10a111.32 111.32 0 0 0 17.1 4.26c3.56 0.52 7.02 2.68 10.6 1.8a55.74 55.74 0 0 0 9.88 -4.26c13.48 -7.38 24.8 -10.52 68 -29.52 4.14 -2 8.42 -2.86 12.3 -4.94a57 57 0 0 1 11.66 -4.78c1.8 -0.66 1.94 -1.56 0.64 -3Zm-77.2 -306.72a4 4 0 0 1 1.82 2.58c0 0.92 -0.78 1.3 -1.7 1.18a1.76 1.76 0 0 1 -1.54 -2.2c0.14 -0.78 0.38 -1.44 1.42 -1.56ZM274 30.54c-0.64 0.14 -1.68 -0.5 -1.56 -1.28 0.26 -1.3 1.12 -1.62 2.34 -1.58a1.52 1.52 0 0 1 1.3 1.32c-0.2 1.16 -1.12 1.42 -2.08 1.54Zm96.94 248.46a4.48 4.48 0 0 1 0.4 -1.44c0.36 -1.04 0.8 -1.3 1.56 -0.12 1.6 2.54 1.16 10.1 -1.04 12.82a42.5 42.5 0 0 1 -0.92 -11.26Zm-0.64 12.3c0.52 1.42 0.14 2.2 -1.56 2.46a55.4 55.4 0 0 0 -10.22 3.62c-17.58 6.98 -34.76 14.76 -40.68 16.98 -6.74 2.46 -13.46 5.44 -20.2 8 -5.7 2.2 -11.4 4.8 -16.98 7.26 -1.16 0.38 -2.46 0.78 -3.88 1.16a17.2 17.2 0 0 0 0.52 -12c19.06 -6.62 12.28 -4 28.36 -10.1 3.54 -1.34 7 -3.24 10.76 -4.54 5.3 -2 31.08 -12 38.72 -14.62a22.94 22.94 0 0 0 5.58 -2c0.52 -0.26 1.3 -0.78 1.3 -1.56s-1.04 -1.16 -1.56 -1.3c-1.42 -0.38 -1.56 -1.8 -2.34 -2.84 3.9 -1.56 7.78 -3.1 11.8 -4.54a21.56 21.56 0 0 0 0.38 14.02ZM195.82 334a31.74 31.74 0 0 0 6.36 1.42 62.94 62.94 0 0 0 -5.32 7.38 1.2 1.2 0 0 1 -1.56 0.78c-4.26 -0.64 -8.68 -1.16 -12.82 -2.2a6.9 6.9 0 0 1 -2.32 -0.26c2.58 -2.32 5.1 -4.72 7.64 -7.12a19.76 19.76 0 0 0 3.36 -3.36 3.18 3.18 0 0 1 4 -1.56c3.76 0.9 7.64 0.64 11.4 2.2 -1.18 1.3 -2 2.46 -4 2a46.58 46.58 0 0 0 -6.34 -1.04c-0.66 -0.14 -1.56 -0.78 -1.82 0.26s0.64 1.5 1.42 1.5ZM274 271.48c0.48 1.56 1.68 2.84 2.6 4.92a25.32 25.32 0 0 0 -10.24 -2c-3.62 -0.38 -7.26 -1.02 -11.02 -1.42 -1.68 -0.12 -2 -1.02 -1.16 -2.32 2.68 -4.62 4.92 -9.72 7.9 -14.38 2 -2.86 4.14 -5.58 6 -8.42a2.2 2.2 0 0 1 2.46 -1.18 64.1 64.1 0 0 1 10.62 1.18 43.88 43.88 0 0 0 -4.78 7.38 20 20 0 0 0 -2.38 16.24Zm-19.5 -9.48a70 70 0 0 0 -5.56 13.86c-0.78 3.5 -2.22 7.12 -3.12 10.76s-1.3 6.6 -2 10a64 64 0 0 0 -1.7 19.18c0.14 1.04 -0.12 1.18 -0.9 1.16a5.12 5.12 0 0 1 -4.8 -5.3 52.26 52.26 0 0 0 0.66 -6.48c0 -2.72 0.38 -5.32 0.52 -8a69.04 69.04 0 0 1 3.5 -15.4c1.16 -3.76 2.72 -7.4 4.14 -11.14a186.26 186.26 0 0 1 8.16 -18.14 115.32 115.32 0 0 1 12.44 -18.26 49.02 49.02 0 0 1 18.64 -14 18 18 0 0 1 7.9 -1.68c2.62 0 3.72 2.42 0 5.32a28.64 28.64 0 0 1 -7.54 3.74 12.64 12.64 0 0 0 -4.04 2.38 59.54 59.54 0 0 0 -9.32 8.68 100.86 100.86 0 0 0 -16.98 23.32Zm0.26 43.52c0.14 1.16 0.14 2.34 -1.68 1.42s-3.5 -1.28 -5.18 -1.8 -1.68 -1.3 -1.56 -2.6c0.52 -3.88 1.04 -7.76 1.42 -11.52 2.72 0 4.66 2 7.14 2 0.76 0.14 0.64 0.78 0.38 1.3 -1.42 3.68 -0.9 7.46 -0.52 11.22Zm-18.52 -23.18c-3.76 -1.82 -7.78 -3.24 -11.54 -4.92 -5.66 -2.48 -14.6 -5.42 -17.48 -6.86a93.7 93.7 0 0 1 16 2.32c3.48 0.6 7.12 1.04 10.62 1.42 1.56 0.14 2.98 1.18 4.52 1.04 1.04 0 0.92 0.66 0.78 1.42 -0.26 1.82 -1.42 3.5 -1.42 5.32 -0.06 1.06 -0.96 0.54 -1.48 0.28Zm29.14 -52.72c-8.6 9.76 -8.28 11.18 -10.36 10.88 -5.06 -0.78 -10.24 -1.04 -15.16 -2s-10 -1.16 -15.28 -2a36.9 36.9 0 0 1 6.74 -4.92 103.3 103.3 0 0 1 22.92 -11.14 16 16 0 0 1 11.54 0c2 1.02 4.52 1.02 6.86 2.32 -2.46 2.48 -5.18 4.42 -7.26 6.88Zm-34.98 11.14a21.86 21.86 0 0 1 6 1.3 43.26 43.26 0 0 0 9.72 1.16c2.46 0.12 4.78 1.3 7.38 1.16 -3.8 7.6 -7.7 12.78 -10.62 21.24a35.22 35.22 0 0 0 -1.82 4.54c-0.16 1.04 -1.04 0.9 -1.82 0.78 -8 -2 -16 -2 -24 -3.76 -3.7 -0.82 -4.12 0.28 -5.82 -1.42 -2.86 -2.86 -3.38 -6.74 -4.16 -10.5 -0.24 -0.64 0.26 -1.16 0.52 -1.54a145.28 145.28 0 0 1 12.58 -12.96 4 4 0 0 1 3.36 -0.9 34.82 34.82 0 0 0 8.68 0.92ZM206.18 266c-2.84 -0.38 -5.3 -0.76 -8 -1.16a66 66 0 0 1 4.66 -7.38 14 14 0 0 0 3.34 8.54Zm16.58 14.64c4.24 1.78 8.6 3.66 12.7 5.58 0.52 0.24 0.52 0.64 0.38 1.16a102.38 102.38 0 0 0 -1.8 12.44c0 1.3 -0.66 0.8 -1.42 0.52 -3.02 -1.1 -6 -1.82 -9.08 -2.98 -4 -1.56 -8.42 -2.72 -12.56 -4 -3.76 -1.16 -7.52 -2.46 -11.4 -3.36 -2.46 -0.4 -3.36 -2 -4.28 -3.9a12.36 12.36 0 0 1 -1.42 -5.44 34.68 34.68 0 0 1 1.56 -9.72c0.52 -0.9 1.04 -1.42 2.2 -0.9 13.56 6.18 5.28 2.18 25.12 10.5Zm-27.72 11.28c23.52 6.48 27.54 9.06 35.1 11.52 0.52 0.14 0.78 0.4 1.04 0.4 3.24 -0.52 2.72 2.2 3.12 4 0.12 0.92 -2 1.68 -3.64 1.3s-3.36 -1.04 -5.04 -1.56c-2.98 -0.9 -6 -1.42 -8.94 -2.58 -5.7 -2.2 -11.78 -2.34 -17.36 -4.54a18.68 18.68 0 0 0 -6.6 -1.56c-0.26 0 -0.92 -0.26 -1.04 0.26s0.4 0.9 0.9 1.04c6.64 1.82 13.34 4.28 20 6 6 1.8 12.3 3.62 18.4 6a1.58 1.58 0 0 1 1.42 1.3 7.36 7.36 0 0 0 -4.4 0.64c-1.3 0.52 -2.86 -0.36 -4.14 -0.78 -5.22 -1.7 -10.92 -2.36 -16.2 -4a0.64 0.64 0 0 0 -0.42 1.22c5.54 2 11.5 2.98 17.14 5.4a53.6 53.6 0 0 1 -6.22 4.66c-1.18 0.64 -2.6 -0.52 -4 -0.78 -4.66 -0.78 -9.06 -2 -13.74 -2.32 -8.46 -0.5 -4.98 -10 -10 -15.04 -1.44 -1.42 -1.04 -6.34 0.12 -8a3.04 3.04 0 0 0 0.52 -1.18c0.26 -1.02 0.26 -2.46 1.04 -2.72s1.9 0.92 2.94 1.22Zm10.96 36.56a116.54 116.54 0 0 0 -12.3 -1.3 12.34 12.34 0 0 0 2 -6 0.72 0.72 0 0 1 0.92 -0.78c5.7 1.04 11.64 2.2 17.86 3.36 -2 1.82 -3.76 3.38 -5.44 5.06 -0.92 1.18 -1.94 -0.22 -3.04 -0.34Zm17.88 -7.66c3.1 -1.68 5.7 -4.4 9.32 -5.3 0.78 -0.14 1.56 -0.14 1.68 0.38 1.16 3.64 4.54 4 7.38 5.06 0.66 0.26 1.3 0.52 1.44 1.56 0.24 5.18 0.48 10.28 -2 15.02 -1 1.84 -3.08 2.62 -4.66 3.88 -1.02 0.82 -10 5.9 -10.36 5.58 -0.78 -0.66 -0.66 -2.34 -0.92 -3.5a22 22 0 0 0 -13.6 -14.26c3.84 -2.72 7.1 -6.08 11.84 -8.42Zm12.82 23.32a6 6 0 0 1 3.36 -0.12c4.66 1.04 9.2 1.8 13.86 2.72 0.78 0.26 2 0.52 2 -0.52s-0.78 -1.56 -1.68 -1.82a50.46 50.46 0 0 0 -9.08 -2.32c-0.78 -0.12 -2.34 -0.14 -2 -1.04a2.94 2.94 0 0 1 2.58 -1.68 6.36 6.36 0 0 0 1.56 -0.14c0.52 -0.12 1.3 -0.26 1.3 -1.04s-0.66 -0.9 -1.04 -1.04c-1.16 -0.38 -1.42 -0.9 -1.04 -2.2a21.58 21.58 0 0 0 0.26 -4c7.38 1.16 14.5 2.58 21.76 4.14 -6.74 8.54 -7.52 15.42 0.12 22.92 -14.24 -2.2 -28.48 -3.1 -42.22 -7.24a62.38 62.38 0 0 1 10.32 -6.62Zm12.94 -16.7c-2.84 -0.66 -3.74 -1.82 -2.98 -4.54 0.14 -0.78 0.52 -0.52 1.04 -0.38 5.32 2 11.02 2.72 16.46 4.26a9.88 9.88 0 0 0 6.22 0.4c-0.78 -1.68 -2 -2.6 -3.38 -2.34 -6.6 -1.04 -12.94 -3.24 -19.56 -4.52a3.6 3.6 0 0 1 -2 -3.5 21.4 21.4 0 0 0 0.52 -6.36c-0.26 -1.28 0 -1.84 1.54 -1.28 7.06 2.54 14 5.18 21.24 7.38 1.18 0.52 2.62 0.36 3.76 0.9 2.62 1.24 3.76 4.54 2.72 8 -0.78 1.8 -1.54 3.62 -2.32 5.44 -0.14 0.52 -0.52 0.64 -1.3 0.52 -7.32 -1.02 -17.32 -3.42 -21.9 -3.98Zm19.18 -16.46c0 1.42 -0.52 1.68 -1.56 1.16a72.12 72.12 0 0 0 -8.54 -2.96 1.5 1.5 0 0 1 -1.3 -1.7 42.38 42.38 0 0 1 -0.38 -7.12 15.88 15.88 0 0 1 0.52 -4.92c0.24 -1.16 0.64 -1.42 1.8 -0.9a44.82 44.82 0 0 0 9.72 3.5c4.24 1.04 -1.08 1.7 -0.2 12.94Zm3.88 2a3.82 3.82 0 0 1 -1.28 -3.1c0 -4.52 -1.54 -10.76 4.78 -13.22s49.84 -18.12 56.48 -20.98c3.76 -1.56 7.78 -2.58 11.66 -3.88a82.44 82.44 0 0 1 10.36 -2.98c1.16 -0.14 1.82 -1.3 2.84 -1.56a0.96 0.96 0 0 1 -0.26 1.3c-1.8 4.54 -3.36 9.06 -2.32 13.86 0.52 2.32 -0.12 2.5 -1.82 3.36 -6.28 3.24 -12.94 4.92 -19.42 7.38 -15.9 5.88 -40.68 16.76 -56.48 22.16 -2.02 0.46 -3.24 -1.32 -4.48 -2.4Zm86.28 -37.82c0.9 -4.14 0.94 -4.22 4.66 -2.46a28.62 28.62 0 0 1 2.98 1.68c-2.46 1.82 -5.18 2.46 -7.38 4 -0.66 0.52 -0.78 -0.12 -0.78 -0.52 0.18 -0.94 0.44 -1.86 0.58 -2.76Zm-0.78 -11c-2.98 1.42 -5.84 1.28 -8.56 2.2 -3.36 0.78 -6.34 2.32 -9.7 3.1 -7.4 1.68 -14 5.58 -21.12 8 -4.28 1.44 -8.56 3.5 -12.7 5.06 -5.18 2 -10.44 3.84 -15.54 6 -4.24 1.76 -9.32 2.84 -13.08 5.44s-6 1.3 -9.06 0.26c-10.72 -3.76 -19.68 -6 -19.56 -7.9s2.34 -8.7 3.4 -9.26c0.64 -0.32 1.58 -0.12 3.32 0.32a98.26 98.26 0 0 0 13.74 1.56 29.84 29.84 0 0 0 8.94 0.38c1.16 -0.12 1.8 0.78 2.58 1.3a6 6 0 0 0 7.26 0.52 92 92 0 0 1 10.76 -4.68c4.78 -1.8 9.32 -3.62 14.1 -5.3 10 -3.5 20 -7.3 30.2 -10.62a9.52 9.52 0 0 1 7.64 0.38c2.38 1.08 4.72 2 7.44 3.18Zm9.58 -32.9c-2 3.5 -1.3 6.72 -1.3 10a8 8 0 0 0 1.04 4.92c0.78 1.56 0.14 1.7 -0.9 2 -4.92 2.46 -10.24 3.5 -15.28 5.32 -9.08 3.24 -18.28 5.82 -27.22 9.44 -16.5 6.58 -23.02 8.48 -37.68 15.42 -0.52 0.26 -1.16 0.5 -1.68 0 -3.18 -3.04 -6.4 -6 -7.4 -10.62 -1.1 -5.2 2 -11.14 4.42 -15.8a4.58 4.58 0 0 1 3.62 -2.46c7.8 -1.5 15.54 -3.62 23.32 -5.06 8.7 -1.56 41.38 -8.98 42.62 -9.32 5.24 -1.44 10.54 -2.62 16.5 -3.9ZM321.46 222c14 2.6 33.88 5.82 38.1 6.48v0.26c-2.86 0.76 -5.7 1.42 -8.56 2 -4.46 1.34 -26.26 6.96 -38.46 9.46 -7.26 1.56 -14.26 3.36 -21.52 4.66 -2.72 0.52 -5.82 -0.38 -8.8 -0.52s-6 -2.2 -9.72 -1.68a77.24 77.24 0 0 1 17.5 -14.24c0.7 -0.44 5.12 -0.96 5.44 -1.44 2.58 -3.36 6.6 -2.32 10 -2.84a38 38 0 0 0 11.28 -2.72c1.38 -0.72 3.28 0.28 4.74 0.58Zm-10.48 -132a30 30 0 0 0 0.26 -11.26c6.98 5.74 7.64 5.6 7.64 6.74a1.08 1.08 0 0 1 -1.16 0.9c-1.82 -0.14 -2.36 1.14 -3.12 2.46a23.06 23.06 0 0 0 -3.62 10.74c-0.14 4.68 1.04 6.74 5.04 8.82 -2.32 7.76 -8.16 11.14 -16 13.34 3.88 -3.1 5.04 -7.52 6.22 -11.52A182.5 182.5 0 0 0 310.98 90Zm-38.6 -31.48c6.36 0.86 19.3 3.4 24.86 7.26 2.6 1.68 2.72 1.68 3.64 5.06 -13.74 -3.38 -27.08 -8.68 -42 -8 4.18 -4.58 8.58 -4.84 13.5 -4.32ZM237.28 92.2c-4 -6 -0.66 -15.28 3.62 -17.36 1.1 5.34 -2.4 10.38 -3.62 17.36Zm20.98 24.62c-7.34 -2.24 -11.82 -1.7 -18.78 -10.24 -1.42 -1.68 -1.04 -4.28 -0.52 -6.6 1.3 -5.44 2 -11.14 3.62 -16.58a31.44 31.44 0 0 0 0.92 -5.06 28 28 0 0 1 2.72 -6.48 7.1 7.1 0 0 1 7.12 -4.52c3.5 0 6.74 -0.78 8.8 -0.52a88.58 88.58 0 0 1 27.46 4.8c3.6 1.24 7.52 1.42 11.02 2.98 4.66 2.2 6.86 3.48 6.72 10a77.24 77.24 0 0 1 -3.88 21.24c-3.76 13.66 -8.82 15.88 -17.62 15.42 -2.98 -0.12 -6.2 -0.64 -9.18 -1.04a124.84 124.84 0 0 1 -18.4 -3.4Zm15.74 10.74a5.6 5.6 0 0 1 -0.4 7.52 2 2 0 0 1 -2.32 0.52 8 8 0 0 1 -5.06 -4.92c3.56 1.04 5.5 -1.42 7.78 -3.12Zm-28.24 8.68a43.32 43.32 0 0 1 12.36 -4.24c3.5 -0.92 5.84 -1.3 7.66 2.84a6.66 6.66 0 0 0 8 3.62c3.24 -0.9 4.14 -3.62 4.66 -6.2 0.38 -2 1.42 -2.24 2.72 -2 8.58 1.08 17.22 2 25.26 5.82a12.86 12.86 0 0 1 6.72 8.42 172.1 172.1 0 0 1 4.94 20 87.7 87.7 0 0 1 2.58 21.88c-0.38 6.22 -0.12 12.58 -0.12 18.92a64 64 0 0 0 -0.26 7.12A3.52 3.52 0 0 1 318 216c-2.72 1.18 -5.2 3.2 -8.16 3.64s-6.36 0.64 -9.46 1.04c-0.92 0.12 -1.28 -0.4 -1.68 -1.18 -2.24 -4.2 -6.22 -6 -9.72 -4.52a58.2 58.2 0 0 0 -10.98 4.82c-0.38 0.38 -0.9 0 -1.28 -0.14 -5.58 -1.68 -10.88 -3.24 -16.32 -4.78 -0.66 -0.14 -0.78 -0.52 -0.92 -1.04s-0.52 -0.92 -0.9 -1.16c-3.12 -1.7 -3.12 -1.7 -3.12 -5.58a83.36 83.36 0 0 0 0 -11.4c0 -3.82 -2.5 -5.82 0.4 -6.86 4 -1.56 7.34 -4.38 11.14 -6.36a114.84 114.84 0 0 0 17.36 -11.9c2.84 -2.34 5.44 -4.92 8.16 -7.52 0.64 -0.64 0.66 -0.66 1.54 -0.14a6.36 6.36 0 0 0 6.36 -0.24c4.78 -2.46 8.16 -9.72 4.66 -15.3a13.44 13.44 0 0 0 -4.8 -5.18c-6 -3.32 -13.56 1.32 -12 9.34 0.14 1.02 -0.26 1.42 -0.76 2.2 -4.28 4.78 -9.86 8 -14.9 12s-10.88 5.82 -16 9.18c-1.04 0.78 -2.32 1.32 -3.5 2 -1.66 1.06 -2 0.12 -2.2 -1.3a50.26 50.26 0 0 0 -4.54 -16.44c-2 -4.66 -2.98 -9.72 -4.8 -14.52 -1.2 -2.98 0.56 -6.3 4.12 -8.42Zm51.54 15.04c-1.54 -1.7 -3.1 -3.38 -6 -2.98 2 -3.64 4.66 -4.28 8.16 -2.86 2.72 1.3 5.06 6.36 4.14 8.94 -1.42 3.88 -4.14 6 -7.5 5.18 0.76 -0.78 2.84 0.4 2.84 -1.68s0 -4.8 -1.7 -6.6Zm-58.94 -10.12a21.76 21.76 0 0 0 2.48 10.5c-4.48 -2.84 -5.12 -5.06 -2.54 -10.5Zm-24.92 31.74a73.76 73.76 0 0 0 11.26 -9.06c4 -3.88 8 -8 9.46 -14 2.22 1.6 3.16 4 5.78 4.48a66.32 66.32 0 0 1 -4.36 6.66c-4.36 4.3 -8.16 8.94 -13.2 12.58 -2.46 1.68 -5.44 2.46 -8 3.88 -0.64 0.12 -0.78 0 -0.9 -0.4 -0.28 -0.9 -0.9 -1.68 -1.16 -2.72s0.6 -1.16 1.12 -1.42Zm-7.78 0.14c0.92 -0.66 1.56 0.38 2 0.78 3.1 2 3.1 5.7 5.18 8.8 -2 -0.26 -3.62 -1.16 -5.3 -1.3a0.7 0.7 0 0 1 -0.78 -0.52c-0.62 -1.7 -1.56 -3.5 -2 -5.3a2 2 0 0 1 0.9 -2.46ZM129.38 130.38c6.18 -0.44 12 -0.84 18 -1.64 8 -1.04 16 -0.4 23.7 -1.56 2 -0.26 4.54 0.26 6.74 0.12 2.98 -0.24 5.7 -0.18 8.54 -0.24 2.34 0 2.34 0 3.12 2.58a61.48 61.48 0 0 1 -8.56 -0.52c-10.36 -0.48 -16.58 1.68 -24.74 2.46a107.22 107.22 0 0 1 -15.8 0.92c-2.84 -0.12 -8.74 0 -11.1 -0.32a0.9 0.9 0 0 1 0.1 -1.8Zm-9.2 -0.62a3.82 3.82 0 0 1 2.7 0.86 0.88 0.88 0 0 1 -0.28 1.6 2.46 2.46 0 0 1 -2.94 -0.9c-0.34 -0.44 -1.66 -1.56 0.52 -1.56Zm-15.28 -8.28c0.12 -0.52 0.64 -0.38 0.9 -0.38 1.3 0.12 2 1.3 2.98 1.8 2.94 1.62 6 2.98 9.06 4.54 0.52 0.26 1.3 0.26 0.78 1.3 -0.38 0.64 -0.78 1.02 -1.68 0.52a17.1 17.1 0 0 1 -2.46 -1.56 43.72 43.72 0 0 0 -8.68 -4.92c-0.64 -0.26 -1.04 -0.52 -0.9 -1.3Zm12.3 48.18c-0.52 -1.28 -1.04 -2.46 -0.14 -3.62a1.38 1.38 0 0 1 1.18 -0.9c0.78 0 0.78 0.64 1.04 1.02a42.54 42.54 0 0 1 2.58 6 5.2 5.2 0 0 1 -4.66 -2.5Zm7.64 13.08c-1.44 -0.34 -3.5 -0.38 -3.5 -2.72a16.12 16.12 0 0 1 0.66 -2.2 2 2 0 0 1 1.42 -1.42c0.9 -0.12 0.78 0.9 1.04 1.42 0.52 1.3 1.02 2.46 1.54 3.76s0 1.46 -1.16 1.16Zm1.68 3.5c0.14 -0.52 0.26 -1.04 0.92 -1.04 1 0 0.5 0.66 2.72 5.44 -2.98 -0.76 -4.02 -2.32 -3.64 -4.4Zm11.8 15.16c-0.26 -0.12 -0.26 -0.64 -0.4 -0.9a97.16 97.16 0 0 0 -7.26 -17.1c-4.66 -9.58 -8.54 -19.7 -12.56 -29.54 -1.68 -4 -3.62 -7.76 -5.3 -11.78a64.3 64.3 0 0 1 -2.6 -6.48c-1.36 -3.48 -3.62 -6.22 -5.44 -9.84 5.7 2.58 10.24 5.82 15.16 8.42a2.42 2.42 0 0 1 1.3 1.68c2.2 6.74 4.78 13.22 6.78 19.82 2.58 8.94 5.82 17.74 8.54 26.68a46.94 46.94 0 0 0 5.06 12.82 59.72 59.72 0 0 1 3.36 7.26 9.12 9.12 0 0 0 2.98 4 1.88 1.88 0 0 1 0.78 1.8c-3.8 -1.52 -6.52 -5.16 -10.4 -6.84Zm13.46 5.18c-4 -4.54 -5.04 -10.48 -7.5 -15.68s-3.76 -10.36 -5.58 -15.4c-1.82 -4.66 -2.58 -9.6 -4.92 -13.86 -2 -3.76 -2.72 -8.3 -4.14 -12.32s-3.12 -8 -4.54 -11.78c-0.52 -1.42 -0.38 -1.82 1.16 -1.68s2.46 0.52 2.72 1.82c0.66 3.74 2.86 6.98 4.16 10.62 1.54 4.26 3.36 8.54 4.66 12.82a94.9 94.9 0 0 0 5.18 14.38c2 4.14 2.72 8.68 4.52 12.82 2.72 6.48 4.68 13.46 7.66 20 -2.08 0.6 -2.6 -0.58 -3.38 -1.74Zm28.88 -1.16a3.68 3.68 0 0 0 0.14 5.18c0.38 0.26 0.9 0.52 0.9 1.3 -2.58 -0.52 -5.3 -1.08 -7.9 -1.44 -3.36 -0.44 -6.6 -0.9 -10 -1.16 -1.68 -0.12 -3.36 -0.38 -5.04 -0.52 -1.3 -0.12 -2.2 -1.56 -2.6 -2.84 -2 -5.18 -3.62 -10.36 -5.82 -15.54 -1.56 -3.76 -2.46 -8 -4 -11.66 -1.82 -4.28 -3.76 -8.56 -5.18 -13.08 -0.9 -3.12 -2 -6.36 -3.1 -9.34 -5.44 -15.22 -8 -16.16 -8.3 -20h15.16c23.76 -0.92 19.42 -3.58 43 -2.98a3.66 3.66 0 0 1 4 3.76c0.12 5.3 2.46 10 4 15.14 5 15.84 8.68 16.36 5.7 20.74 -1.26 1.84 -0.14 4.26 0.78 6.48a4.28 4.28 0 0 1 0.9 2.84C200 178.22 196.86 174 192 171.6a9.1 9.1 0 0 0 -5.58 -0.76c-2 0.34 -3.16 3.52 -1.8 5.82a55.78 55.78 0 0 0 3.76 6.22 18.2 18.2 0 0 0 5.04 4.92 39.22 39.22 0 0 0 -6.22 -1.56 10.68 10.68 0 0 0 -8.54 1.3 4 4 0 0 0 -1.68 3.5c0 2.34 10 7 15.02 7.64a22.72 22.72 0 0 1 -4.66 1.42 15.04 15.04 0 0 0 -6.68 5.32Zm7.14 -30c-0.26 -0.66 -0.66 -1.56 0.12 -1.56 5.6 0.74 8.98 4.96 12.96 8.94 0.64 0.52 1.16 1.16 -0.14 1.68a2.4 2.4 0 0 0 -0.78 0.78c-1.02 2.72 -2 1.42 -3.62 0.38a22 22 0 0 1 -8.54 -10.14Zm8.16 20c-0.4 0.38 -0.52 0.38 -0.92 0.26a26.8 26.8 0 0 1 -13.86 -5.58 5.88 5.88 0 0 1 4.28 -1.3 22.74 22.74 0 0 1 9.46 2.72 3.08 3.08 0 0 1 1.08 4.06Zm-8.16 12.94c-1.44 0.4 -3.12 0.66 -4 -0.38s1.06 -1.8 1.82 -2.72A14.44 14.44 0 0 1 194.4 202c1.16 -0.26 1.68 0.26 2.2 1.42s-6.12 4.72 -8.8 5.1Zm12.82 2a94.6 94.6 0 0 0 -8 5.58 20 20 0 0 1 5.18 -7.38c1.32 -1.14 2.2 -0.66 2.98 0.9 0.1 0.54 0.1 0.88 -0.16 1Zm12.7 -0.9c-3.42 1.6 -6 1.56 -8.82 -1.3 -1.82 -1.68 -4.22 -3.12 -4.8 -5.56 -1.16 -4.96 -1.16 -9.84 2.34 -14s6.22 -4.92 9.84 -3.36a12.7 12.7 0 0 1 3.38 2.34c1.02 1.02 1.68 2 0 3.36a8.4 8.4 0 0 0 -0.92 11.4 6.12 6.12 0 0 0 4.16 2.2 10.42 10.42 0 0 1 -5.18 5.02Zm8.68 -11.16c-0.64 1.02 -0.12 2.98 -2.46 2.72a3.68 3.68 0 0 1 -2.98 -5.44c1.3 -3.12 2.22 -3.24 4.28 -0.78 0.14 0.12 0.26 0.38 0.4 0.38 2.76 0.4 1.26 2.08 0.76 3.12Zm0.4 -6.48a6.3 6.3 0 0 0 -4 -2.46c-0.12 -0.14 -0.52 -0.4 -0.52 -0.52 -0.52 -2.6 -2.58 -4.66 -2.72 -7.38 -0.12 -0.78 0 -1.04 0.92 -1.18a18.9 18.9 0 0 0 9.18 -4.66 63.38 63.38 0 0 0 12.18 -13.46 27.36 27.36 0 0 0 3.48 -7.38c2.16 1.76 2.8 4.68 3.64 6.72a72.34 72.34 0 0 1 3.6 10.5c0.26 1.82 0.64 3.62 1.04 5.44a1.8 1.8 0 0 1 -1.18 2c-5.18 2.58 -10.22 5.3 -15.4 7.64a46 46 0 0 0 -9.08 4.66 0.96 0.96 0 0 1 -1.16 0.08Zm23.18 -2.2c-4.66 1.8 -8.68 4.66 -13.46 5.82 -1.82 0.4 -3.76 0.9 -5.44 1.3 -0.52 -0.14 -1.3 0.26 -1.56 -0.9 -0.14 -0.78 0.38 -1.18 1.16 -1.56 4.54 -2.46 9.2 -4.14 13.74 -6.48 12 -5.88 30.3 -16 40.92 -24.1a70.68 70.68 0 0 0 11.52 -11.7c0.64 -0.9 1.04 -1.04 1.8 0 2 2.6 1.56 4.92 -1.42 7.38a115.68 115.68 0 0 1 -10.74 8.62 161.68 161.68 0 0 1 -17.76 11.78c-6.22 3.36 -12.18 7.38 -18.78 9.84Zm5.06 25.26a4.88 4.88 0 0 1 6 2c-7 0.82 -12.48 3.6 -18.4 6.22a135.04 135.04 0 0 0 -18.26 11.14 95.6 95.6 0 0 0 -11.66 11.28 53.76 53.76 0 0 0 -8 10c-4.5 7.68 -10.94 18.92 -12 28.64 -0.22 2 -1.04 3.62 -1.3 5.44a38 38 0 0 0 -0.38 13.86c0.12 1.02 -0.14 1.16 -1.16 0.9 -2 -0.52 -2 -2.34 -2.34 -3.88 -2.82 -11.5 2.3 -23.76 6 -34.46a3.68 3.68 0 0 1 0.52 -0.9c2.84 -3.76 4 -8.3 6.34 -12.32a71.46 71.46 0 0 1 12.82 -16.44c5.7 -5.7 12.7 -9.6 19.44 -13.6 8.06 -4.76 18.1 -6.34 22.36 -7.88ZM182 274.84a11.18 11.18 0 0 1 1.16 -7.64 1.36 1.36 0 0 1 1.82 -0.78c0.9 0.4 0 1.04 -0.12 1.56 -0.86 2.2 -1.86 4.54 -2.86 6.86Zm6.74 -15.16a14.88 14.88 0 0 1 -2.38 -7.68c-0.54 -4.28 0.62 -8.14 1.44 -12.16 0.94 -4.62 2.72 -3.58 14.64 -2.34a79 79 0 0 0 -13.74 22.18Zm29.14 -34a90.64 90.64 0 0 0 -9.72 7.26 5.42 5.42 0 0 1 -5.82 1.3 40.4 40.4 0 0 0 -12 -1.04c-2.46 -0.14 -4.78 -0.4 -7.12 -0.52a1.54 1.54 0 0 1 -0.14 -0.78c11.84 -1.1 22.92 -5.76 34.76 -6.28ZM169.52 242a32.4 32.4 0 0 1 2.72 -6.62c1.24 -1.84 0.44 -0.98 12.84 0.52 1.28 0.16 2.32 0 1.42 2.34 -3.36 8.7 -4.16 16.8 0.78 24.6a80 80 0 0 1 -11.54 -0.9 4.68 4.68 0 0 1 -4 -2.34c-1.18 -2.2 -3.24 -3.74 -4 -6.34 -1.2 -4.06 0.62 -7.56 1.78 -11.26Zm1.18 38.6a7.32 7.32 0 0 1 -4.28 -6 15.86 15.86 0 0 1 1.42 -8.42 3.58 3.58 0 0 1 4.92 -2 47.52 47.52 0 0 0 8.94 2.2 18 18 0 0 0 -1.8 13.34 12.46 12.46 0 0 1 -0.14 2.2c0 1.04 -0.78 1.3 -1.3 0.92 -2.32 -1.38 -5.3 -1 -7.76 -2.16Zm3.3 5.78c0.14 -0.14 0.26 -0.26 0.4 -0.26 4 -0.26 5.04 0.78 5.04 4.78a42.16 42.16 0 0 0 0.9 11.28c0.14 0.52 0.14 1.3 -0.38 1.3 -1.42 0 -2.46 1.16 -3.88 1.42 0.84 -6.36 1.6 -12.7 -2.08 -18.52Zm-11.4 35.48a71.4 71.4 0 0 1 10.24 -10.48 34.52 34.52 0 0 1 8.16 -5.58c0.38 -0.12 1.04 -0.9 1.56 0.14 1.02 2 2.98 2.32 5.04 2.46 0.4 0 1.04 -0.4 1.3 0.52 0 0.3 2.26 8.56 2.34 8.68 1.42 3.22 -0.26 5.82 -1.7 8.42a22 22 0 0 1 -4.52 5.18 62.9 62.9 0 0 1 -8.16 7.12c-1.02 0.66 -1.7 0.64 -1.82 -0.78a18.86 18.86 0 0 0 -4.28 -8.94 12 12 0 0 0 -7.32 -4.6c-2.08 -0.46 -1.68 -0.96 -0.78 -2.14Zm8.42 20.86c-4.78 2.98 -9.84 6 -15.8 6.48 -2.58 0.18 -4.2 -2.34 -3.62 -5.32a66.74 66.74 0 0 1 3.62 -12.3 32.46 32.46 0 0 1 4.66 -6.6c0.52 -0.66 1.3 -0.26 2 -0.14 5.7 1.56 8.8 5.74 10.48 11.28 0.12 0.38 0.26 0.9 0.4 1.28a3.86 3.86 0 0 1 -1.68 5.32Zm25.4 24.22c-3.12 -0.9 -6.36 -1.56 -9.34 -2.46 -2.32 -0.52 -4.66 -1.04 -7.12 -1.42a5.12 5.12 0 0 1 -3.76 -2.46 16.56 16.56 0 0 1 -3.36 -8.82 18.1 18.1 0 0 1 2.84 -7.64c1.82 -2.32 4.28 -1.68 6 -1.16 10.54 3.16 14.5 1.32 12.82 4.4 -1.68 3.62 -2.2 7.12 1.68 9.72a1.8 1.8 0 0 1 0.52 1.68A12.22 12.22 0 0 0 198 366c0.54 1.34 -0.62 1.08 -1.52 0.94Zm1.02 -18.26c3.48 -5.24 7.14 -10.62 11.14 -15.68a4.34 4.34 0 0 1 6.74 -0.12c3.12 2.98 6.22 5.7 7.64 9.84 0.4 1.68 0.66 3.24 1.18 4.8a0.8 0.8 0 0 1 -0.4 1.02 60.92 60.92 0 0 1 -17.36 7.26c-0.5 0.14 -1.28 0 -1.8 0.14a14.22 14.22 0 0 1 -5.06 -1.04c-1.76 -0.26 -3.14 -4.52 -2.02 -6.22Zm6.22 20.46a4.28 4.28 0 0 1 -3.76 -3.5c-0.76 -3.34 -2.46 -6.86 0.4 -6 9.18 2.54 16.26 -4.18 21.62 -5.84 1.56 -0.5 3.5 0.52 5.06 1.04a221.84 221.84 0 0 0 22.54 4.8c-2.86 2.32 -3.1 5.7 -4 9.46 -0.9 3.36 0 6.48 0.4 9.84 -13.92 -3.28 -32.46 -8.2 -42.2 -9.8Zm77.46 17.36a182.12 182.12 0 0 1 -26.54 -6 10 10 0 0 1 -4.16 -1.56c-3.62 -2.58 -2.92 -6.34 -2.72 -9.84a17.72 17.72 0 0 1 3.38 -9.46c0.38 -0.5 1.16 -0.26 1.68 -0.12a192.68 192.68 0 0 0 19.16 2.98c2.6 0.12 2.6 -0.4 2.46 -2.98s-1.42 -2.98 -2.84 -4a10.68 10.68 0 0 1 -2.86 -15.16l0.14 -0.12c1.68 -5.44 6.48 -6.48 11.14 -7.78 2.3 -0.58 40.66 -15.68 52.72 -20.84 5.04 -2.34 10.24 -4.16 15.28 -6.22 6.22 -2.6 12.44 -5.18 18.92 -7.26a3.4 3.4 0 0 1 1.8 -0.38 9.46 9.46 0 0 0 0.78 13.08c0.92 1.04 0 1.28 -0.52 1.54 -8.94 3.38 -17.6 8 -26.42 12 -28.46 12.8 -32.3 16.96 -44.3 21.38 -7.22 2.62 -12.44 7.52 -21.62 12.7 -0.66 0.38 -1.04 0.78 -0.78 1.28s0.78 0.54 1.54 0.26a69.5 69.5 0 0 0 11.54 -6.34 82.28 82.28 0 0 1 15.28 -7.26c6 -2 11.02 -5.44 16.58 -8.16 33 -15.58 25.72 -11.76 37.44 -16.96a4.62 4.62 0 0 1 4.52 0.52c4.54 2.2 9.2 3.5 13.86 5.3 0.26 0.26 0.66 0.4 1.18 0.78 -5.8 2.62 -64.4 26.6 -70.22 28.62a61.04 61.04 0 0 0 -13.6 6.48 4.6 4.6 0 0 1 -4.92 0.52 98.5 98.5 0 0 0 -12 -2c-0.64 0 -1.42 -0.14 -1.54 0.9s0.52 1.16 1.3 1.3c2.72 0.78 5.44 1.42 8.16 2.2 3.32 0.42 -2.76 2.22 -3.12 16.96a6.36 6.36 0 0 0 0.52 2.34c1.04 1.56 0.02 1.44 -1.16 1.3Zm4.14 -1.42c-1.28 -3.38 -0.12 -6.48 0.4 -9.34a20.9 20.9 0 0 1 2.34 -6.34c0.26 -0.52 0.26 -1.42 1.18 -1.3s1.68 0.26 2 1.18a3.46 3.46 0 0 1 0.14 2.84 69.86 69.86 0 0 1 -6 12.96Zm93.02 -40.54c-5.22 1.42 -9.72 4.92 -14.9 6.6 -8.82 2.84 -17.1 7.26 -25.66 10.74 -7.38 2.98 -14.5 6 -21.76 9.34a235.32 235.32 0 0 0 -23.7 11.26 10.84 10.84 0 0 1 -2 0.92c1.68 -3.64 2.84 -6.88 4 -9.86s-0.52 -5.04 -1.8 -7.38c29.66 -12 59.32 -23.18 88.6 -35.62 0.52 1.04 -0.14 1.68 -0.4 2.46 -1.16 3.38 -2.72 6.74 -1.54 10.5 0.12 0.64 -0.28 0.9 -0.78 1.04Z" fill="#3c270b" stroke-width="1"></path><path d="M22.52 95.84A13.36 13.36 0 0 1 24 76c2.72 -1.82 2.46 -1.82 0.38 -4.54a31.46 31.46 0 0 1 -5.82 -8.94c-0.4 -1.3 -1.16 -2.58 0.38 -3.76s2.72 -0.26 4 0.4a21.66 21.66 0 0 1 8.54 8.54 8.96 8.96 0 0 0 0.9 1.18c0 -2.22 0.14 -4 0 -6a23.76 23.76 0 0 1 2.6 -12 2.44 2.44 0 0 1 2.32 -1.82 3.04 3.04 0 0 1 2.46 2.2 21.44 21.44 0 0 1 0.4 7.64v6.62c2.58 -2.98 4.66 -6.22 8.16 -7.78a4.12 4.12 0 0 1 6 3.62c0 6.54 -5.78 11.14 -6.38 12.4 -0.28 0.6 0 1.14 2.24 1.6 0.52 0.12 1.04 1.42 1.42 2.32A15.06 15.06 0 0 1 50 94c-0.14 0.12 -0.14 0.38 -0.26 0.78 2.32 0.12 4.26 0.26 6.46 0.26a2 2 0 0 0 2.22 -1.82c1.02 -6 4.26 -24.86 4.92 -28.24 1.56 -7.34 0.42 -5.72 3.62 -19.16 1.04 -4.8 2 -9.46 2.98 -14.38a15.02 15.02 0 0 0 0.78 -4.14c-0.14 -0.92 1.16 -1.44 2.2 -1.44 14.36 0.5 11.52 1.08 13.72 0.94 1.1 0 1.14 -0.76 1.04 -2.88a64.6 64.6 0 0 0 -0.9 -8.42c0.26 -1.56 0.64 -2.58 0.9 -3.76a2.16 2.16 0 0 1 2.46 -1.54c5.58 1.68 11.4 1.02 17.1 1.28 8.42 0.4 16.72 0.78 25.14 1.56 4 0.4 7.9 0 12 0.14 3.1 0 6.34 0.12 9.44 0.26a2.54 2.54 0 0 1 2.6 3.48c-0.46 1.84 -0.9 35.82 -0.9 36 0 13.02 -2.28 29.68 -1.18 38.34 0.14 1.16 -1.04 2.72 0.14 3.5 0.9 0.38 2.32 -0.14 3.5 -0.14a97.1 97.1 0 0 1 12 0.52c1.56 0.52 2.72 3.12 2.46 6.22A4.92 4.92 0 0 1 169.14 106a2 2 0 0 0 -1.82 1.3 24 24 0 0 1 -5.18 6.2c-1.42 1.3 -2.72 0.78 -2.84 -1.28a32.14 32.14 0 0 1 -0.4 -3.64c0.14 -2.72 -1.42 -2.98 -3.36 -2.58 -5.32 1.04 -10.62 -0.26 -16 0 -6.48 0.38 -12.96 -0.26 -19.3 -0.52 -8.82 -0.4 -17.48 0.12 -26 0 -15.08 -0.34 -53.28 1.54 -67.62 -0.4 -0.9 -0.12 -1.68 -0.12 -2.2 0.92a35.3 35.3 0 0 1 -5.82 6.6 1.68 1.68 0 0 1 -2.98 -0.38C14.2 109.52 16 106 13.7 102.44c-1.16 -1.68 0.26 -3.76 0.26 -5.58 0 -0.76 0.9 -0.9 1.42 -0.9 2.46 0.26 4.92 0.9 7.14 -0.12Zm38.6 -1.44c0.2 0 16.96 -0.86 38.46 0.26a2 2 0 0 0 2.2 -1.68c0.9 -5.36 0.92 -2.58 9.46 -36.78 1.68 -6.86 4.66 -13.74 6 -20.72a38 38 0 0 1 1.42 -4c0.26 -0.52 0.78 -1.04 1.3 -0.78s0.52 0.78 0.38 1.3c-0.38 1.54 -0.76 2.98 -1.16 4.66 -1.16 4 -1.16 4 2.98 4.54a3.3 3.3 0 0 1 1.16 0.38 1.14 1.14 0 0 0 1.44 -0.78c1.16 -2.46 0.9 -5.18 2.2 -7.64 0.38 -0.78 -0.4 -0.78 -0.92 -0.9 -4.44 -1.28 -5.82 -3.02 -6.86 -2.34a16.84 16.84 0 0 1 -9.18 0.88c-6 -0.38 -11.8 -0.9 -17.76 -0.76s-11.14 -1.82 -16.84 -2.34c-2.58 -0.12 -2.58 1.04 -2.72 2.46 -0.38 3.88 -1.16 7.64 -1.68 11.52 -1.16 8 -3.36 15.68 -4.52 23.72 -1.88 9.44 -3.16 19.3 -5.36 29Zm51.8 -66.82a52.6 52.6 0 0 1 13.08 1.54c2.34 0.4 2.72 1.3 2.34 3.38 -0.52 2.98 -1.04 6.22 -1.68 9.18 -1.44 5.32 -2.46 10.64 -3.76 16 -1.04 3.88 -2.34 7.64 -2.98 11.52 -1.56 7.78 -3.36 15.42 -5.06 23.18 -0.38 2.2 0.26 3.38 2.46 2.72 0.96 -0.32 20.92 0.12 21.12 0.14 0.52 0 0.52 0 0.78 -0.52a21.78 21.78 0 0 0 0.52 -4.92c-0.9 -7.78 0 -15.42 0.12 -23.2 0 -5.3 0.26 -10.48 0.4 -15.8 0.26 -10.36 0.12 -20.72 0.52 -30.96 0.12 -1.8 -0.52 -2.46 -2.46 -2.46 -5.44 -0.12 -11.02 -0.26 -16.32 -0.9a177 177 0 0 0 -18.66 -1.16 40.52 40.52 0 0 1 -10.5 -0.92c-2.2 -0.38 -2.72 0 -2.46 2.34a29.16 29.16 0 0 1 0.26 8.94c-0.52 1.04 0 1.04 0.92 1.04a49.34 49.34 0 0 1 6.2 0c5.58 0.86 11.02 -0.32 15.16 0.86Zm-38.2 74.86c4.26 0 8.68 0.26 12.94 0.26 40.88 0 50.38 0.78 51.56 0.64 3.1 -0.26 6.22 0.4 9.32 0.26a45.22 45.22 0 0 1 7.12 -0.26 98.98 98.98 0 0 0 10.64 -0.12c2.72 0 5.3 -5.24 -3.76 -4.4 -6.88 0.52 -13.74 -0.4 -20.6 -0.26 -0.2 0 -105.7 -0.52 -109.84 -0.26s-8.42 0.52 -12.56 0.52a5.06 5.06 0 0 0 -3.38 0.52 2 2 0 0 0 -0.38 2.46 2.38 2.38 0 0 0 2.32 1.54c3.38 0 6.74 -0.38 10.12 -0.12 6.2 0.38 12.3 0 18.38 0.38 5.06 0.16 27.88 -1.16 28.12 -1.16Zm-27.46 -10.62a10.86 10.86 0 0 0 1.16 -12.56 2 2 0 0 0 -1.3 -1.04c-2.58 -0.14 -5.04 -0.52 -7.64 -0.78 -3.76 -0.38 -7.52 0.12 -11.26 -0.38a3.06 3.06 0 0 0 -2.6 0.38 12.46 12.46 0 0 0 -3.5 11.26 5.44 5.44 0 0 0 3.12 4.68c11.56 3.42 18.14 1.82 22.02 -1.56Zm99.6 -56c-3.88 0 -4 0 -3.88 3.88 0 7.52 -0.14 14.9 -0.4 22.42 -0.26 4.78 0.4 9.32 -0.26 14.12 -0.12 1.04 0.14 2.32 2.2 2.2s3.9 -0.4 5.84 -0.4c0.9 0 1.3 -0.26 1.42 -1.16a48 48 0 0 0 0.4 -6c-0.26 -5.58 0.76 -11.28 0.76 -16.84 0 -2.5 1.6 -16.12 0.14 -17.1a8.22 8.22 0 0 0 -6.22 -1.08Zm6.6 -17.22c0.14 -1.04 -0.52 -1.18 -1.28 -1.18a24.14 24.14 0 0 1 -6.88 -1.02c-1.02 -0.26 -1.54 0 -1.54 1.28a140.28 140.28 0 0 1 -0.4 14.78c-0.12 0.9 0 1.16 1.3 1.02 2.46 -0.12 4.8 -1.02 7.26 -0.38 1.68 0.52 2.32 -0.52 2.32 -2.2a68.36 68.36 0 0 1 -0.78 -12.26ZM120 58.52c0.12 -0.52 0.12 -1.02 -0.52 -1.16 -1.56 -0.38 -3.36 -0.9 -4.92 -1.16 -0.52 -0.14 -0.78 0 -0.9 0.52 -0.78 5.04 -2.46 10 -3.5 15.14 -0.92 4.28 -0.92 4.16 3.36 5.06 1.68 0.4 2.34 -0.12 2.34 -1.68a53.84 53.84 0 0 1 1.8 -8c0.7 -2.88 1.56 -5.74 2.34 -8.72Zm22.4 36.8a31.64 31.64 0 0 1 7.14 -0.26c1.8 0.12 2.32 -0.92 2 -2.34 -0.52 -3.76 0.14 -7.38 -0.12 -11.14a22.9 22.9 0 0 1 -6.74 -0.38c-2.2 -0.4 -2.34 0 -2.34 2.2 0 2.98 0.92 6 0.14 9.06a4.32 4.32 0 0 0 -0.16 2.86ZM40.9 74.2a3.36 3.36 0 0 0 3.5 -1.04 36 36 0 0 0 5.84 -7.38 5.64 5.64 0 0 0 1.28 -4c-0.26 -1.42 -0.78 -1.8 -2.2 -1.16a16.42 16.42 0 0 0 -4.92 4.54c-1.68 2.2 -2.46 4.92 -4.14 7.12 -0.4 0.52 -0.9 1.16 -0.52 1.68s1.04 0.24 1.16 0.24Zm-19.42 -12a18.76 18.76 0 0 0 1.54 3.62c1.82 2.34 3.64 4.8 5.2 7.26 1.28 2 2 2.32 4.52 1.16 -3.76 -3.92 -5.3 -10.14 -11.26 -12.08Zm14.9 11.26c1.8 -6.34 1.16 -12.82 1.02 -19.16 -3.4 6.18 -1.68 12.64 -1.02 19.12ZM104.5 94.4a23.66 23.66 0 0 0 5.32 0c1.54 -0.12 1.42 -1.02 1.68 -2.2 0.26 -1.54 -1.04 -1.16 -1.56 -1.42s-1.16 -0.12 -1.68 -0.26c-2.84 -0.78 -2.98 -0.52 -3.36 2.2a9.16 9.16 0 0 1 -0.4 1.68ZM112 88.2c0.38 0 0.38 -0.26 0.52 -0.52 0.52 -2.2 1.16 -4.28 1.68 -6.62a0.76 0.76 0 0 0 -0.52 -1.02 0.84 0.84 0 0 0 -1.16 0.5 27.34 27.34 0 0 0 -1.56 6.36c-0.1 0.78 0.66 0.9 1.04 1.3Zm52.72 18.9a13.74 13.74 0 0 1 -2.6 -0.26c-0.78 0 -1.68 -0.12 -1.8 0.92a2.36 2.36 0 0 0 1.02 2.58c0.52 0.26 1.3 -0.52 1.7 -1.16a25.54 25.54 0 0 0 1.7 -2.08ZM122.22 45.66a23.26 23.26 0 0 1 -2 6.66c-0.14 0.38 -1.04 1.02 -0.26 1.42s1.16 -0.14 1.42 -0.92c0.52 -2 1.52 -4 1.9 -6.26 0.42 -1.44 -0.86 -1.58 -1.06 -0.9ZM20.56 106.84A8.72 8.72 0 0 0 18 106.58c-0.48 0 -0.68 0.22 -0.76 0.42s-0.56 2.38 0.12 2.82 2.86 -2.46 3.2 -2.98Z" fill="#3c270b" stroke-width="1"></path><path d="M356.58 312.4c0 0.92 -0.78 1.04 -1.3 1.3a106 106 0 0 1 -15.16 6.74c-4.54 1.82 -8.68 3.88 -13.08 5.82 -2.86 1.18 -6 2.34 -8.8 3.5a5.06 5.06 0 0 0 -2.48 1.3 0.8 0.8 0 0 1 -1.42 -0.12c-0.26 -0.52 0 -0.92 0.52 -1.18 2.98 -1.42 6 -2.84 8.94 -4.14 7.36 -3.06 9.72 -4.84 19.04 -8.42 12.9 -5.52 9.74 -4.96 12.18 -5.56 1.16 -0.52 1.56 -0.14 1.56 0.76Z" fill="#3c270b" stroke-width="1"></path><path d="M301.78 329.76c5.18 -2.58 10.62 -4.26 16 -6.74 3.12 -1.42 6.22 -3.1 9.46 -4.52 1.16 -0.4 2.98 -1.82 3.76 -0.4s-1.56 1.56 -2.72 2c-17.88 8.66 -14.42 6 -25.62 11.08 -2.98 1.42 -2.4 -0.58 -0.88 -1.42Z" fill="#3c270b" stroke-width="1"></path><path d="M296.3 334.18c-0.94 0.6 -1.44 -0.58 -0.6 -1s1.64 -1.58 2.94 -1.82 2.32 0.34 0.88 1.32 -2.32 0.94 -3.22 1.5Z" fill="#3c270b" stroke-width="1"></path><path d="M283 108.92a123.4 123.4 0 0 1 -16.2 -2.72 97.68 97.68 0 0 1 -11.66 -3.76 9.1 9.1 0 0 1 -5.14 -7.12c-0.38 -1.82 2.72 -4.28 4.68 -3.76a51.7 51.7 0 0 0 11.64 1.56 82.38 82.38 0 0 1 14.9 2.72c1.82 0.38 3.76 0.78 5.58 1.28a7.18 7.18 0 0 1 5.44 4.16c1.3 2.72 0.9 4.92 -2 6a18 18 0 0 1 -7.24 1.64Zm-13.48 -5.58c1.56 0.26 3.12 1.44 4.92 1.04 0.14 0 0.14 -0.38 0.14 -0.52a15.5 15.5 0 0 1 0.9 -6c-1.68 -0.38 -3.5 -0.9 -5.18 -1.28 -0.12 0 -0.26 -0.14 -0.38 -0.14 -1.04 -0.12 -1.68 -0.12 -1.42 1.3 0.22 0.78 0.44 5.5 1.02 5.6Zm-3.36 -6c0.46 -2.4 -1.76 -1.58 -2.86 -2 -2.84 -0.38 -2.84 -0.38 -3.1 2.6 0 0.38 -0.12 0.9 -0.12 1.3s-0.26 0.76 0.38 1.02c9.34 3.22 4.7 2.34 5.7 -2.88Zm15.54 8c0.78 0.26 0.9 -0.26 0.9 -1.04v-1.68c0 -1.04 1.18 -2 0.14 -2.72s-2 -0.52 -2.98 -1.04c-0.38 -0.12 -0.9 -0.26 -1.16 -0.38a0.32 0.32 0 0 0 -0.52 0.26v5.82c0 0.14 0.38 0.38 0.52 0.38a24.24 24.24 0 0 0 3.1 0.48Zm-25 -11.28c-4.52 0 -2.18 4.64 -0.12 4.42 0.76 0.12 3.62 -4.34 0.12 -4.34Zm29.8 11.28c1.3 0 3.1 -0.26 3.1 -1.68s-1.42 -2.72 -2.84 -2.86 -1.32 4.62 -0.26 4.62Z" fill="#3c270b" stroke-width="1"></path><path d="M264.48 78a7.36 7.36 0 0 1 -6.86 6.36c-4.28 0 -8 -2.6 -8.18 -5.84 -0.12 -5.18 5.06 -8.54 8.94 -8.68s6.1 3.2 6.1 8.16Zm-6.86 -4.66a5.3 5.3 0 0 0 -4.94 4.8c-0.12 1.42 2 3.36 4 3.5s4.54 -1.56 4.66 -3.12c0.42 -3.02 -1.14 -4.96 -3.72 -5.1Z" fill="#3c270b" stroke-width="1"></path><path d="M299.44 82.5c0.4 3.48 -2.2 5.18 -4.52 6.2a6.78 6.78 0 0 1 -7.52 -1.02c-2.2 -1.68 -3.4 -3.68 -2.58 -6.48 1.98 -6.28 15.18 -8.5 14.62 1.3Zm-3.1 -0.14c0 -2.72 -1.3 -3.88 -4 -3.88a5.08 5.08 0 0 0 -4.52 4.14c0 1.16 3.1 3.62 4.66 3.62a3.78 3.78 0 0 0 3.86 -3.88Z" fill="#3c270b" stroke-width="1"></path><path d="M299.06 259.44c-0.52 -0.4 -1.56 0.12 -1.68 -0.92 -0.14 -0.52 0.52 -0.78 1.04 -0.9a174 174 0 0 0 18.38 -5.62 115.26 115.26 0 0 1 13.22 -3.1c5.82 -1.3 11.52 -2.98 17.48 -4.28 1.04 -0.26 2.72 -1.42 3.38 0.4s-1.3 1.8 -2.72 2.32c-10.12 2.6 -20.34 4.28 -30.44 7.12 -5.84 1.56 -11.4 3.64 -17.5 4.8a9.42 9.42 0 0 0 -1.16 0.18Z" fill="#3c270b" stroke-width="1"></path><path d="M320.7 260a2 2 0 0 1 -1.82 1.82c-6.6 0.5 -12.56 3.62 -18.92 5.04 -4 1.04 -8 2 -12.16 2.98 -0.4 0.14 -1.04 0.4 -1.3 -0.12s0.52 -0.78 1.04 -0.92c3.62 -1.28 22.14 -7.5 27.58 -9.2 1.16 -0.38 2.34 -0.5 3.5 -0.9 0.9 0.34 1.94 0.34 2.08 1.3Z" fill="#3c270b" stroke-width="1"></path><path d="M345.7 284a41.34 41.34 0 0 1 -8.56 3.48c-5.3 1.56 -10.62 3.5 -16.18 5.06 -3.12 0.9 -6.36 2.2 -9.34 3.36 -0.52 0.26 -1.28 0.78 -1.68 0s0.4 -1.02 1.16 -1.28c4.92 -2.2 10 -4 15.04 -6 5.82 -2.2 11.64 -3.76 17.08 -6.36 0.92 -0.38 1.82 -0.52 2.86 -0.9 0.92 -0.04 2.36 0.9 -0.38 2.64Z" fill="#3c270b" stroke-width="1"></path><path d="M295.7 293.88a121.7 121.7 0 0 0 16.7 -6 67.16 67.16 0 0 1 7.26 -2c0.78 -0.14 2 -0.52 2.32 0.9s-0.78 1.56 -1.54 1.82c-3.64 1.3 -7.52 1.54 -11.14 3.1 -4.26 2 -8.82 2.58 -13.24 4 -5.7 1.72 -1.72 -1.44 -0.36 -1.82Z" fill="#3c270b" stroke-width="1"></path><path d="M355.4 349.32a3.34 3.34 0 0 1 -2.2 1.82 34.34 34.34 0 0 1 -8.54 3.36 80 80 0 0 0 -11.02 4.16c-2.72 1.02 -5.44 1.68 -8.16 2.84a58 58 0 0 1 -9.72 3.88 47.66 47.66 0 0 0 -7.5 2.72c-0.4 0.14 -1.04 0.52 -1.16 -0.26s-0.14 -1.02 0.38 -1.28c2 -0.6 24.42 -10.68 46.12 -18.14 1.28 -0.26 1.68 -0.14 1.8 0.9Z" fill="#3c270b" stroke-width="1"></path></g></g></svg>